<?xml version="1.0" encoding="UTF-8" standalone="no"?>
<svg xmlns:dc="http://purl.org/dc/elements/1.1/" xmlns:cc="http://creativecommons.org/ns#" xmlns:rdf="http://www.w3.org/1999/02/22-rdf-syntax-ns#" xmlns:svg="http://www.w3.org/2000/svg" xmlns="http://www.w3.org/2000/svg" xmlns:sodipodi="http://sodipodi.sourceforge.net/DTD/sodipodi-0.dtd" xmlns:inkscape="http://www.inkscape.org/namespaces/inkscape" width="278.07303mm" height="276.63037mm" viewBox="0 0 278.07304 276.63036" version="1.1" id="svg8" inkscape:version="1.0.1 (3bc2e813f5, 2020-09-07)" sodipodi:docname="birds.svg">
  <style id="style10"/>
  <defs id="defs2"/>
  <sodipodi:namedview id="base" pagecolor="#ffffff" bordercolor="#666666" borderopacity="1.0" inkscape:pageopacity="0.0" inkscape:pageshadow="2" inkscape:zoom="0.34444857" inkscape:cx="263.69217" inkscape:cy="238.16777" inkscape:document-units="mm" inkscape:current-layer="layer12" inkscape:document-rotation="0" showgrid="false" inkscape:window-width="1920" inkscape:window-height="1021" inkscape:window-x="-7" inkscape:window-y="-7" inkscape:window-maximized="1" showguides="false" inkscape:pagecheckerboard="true">
    <inkscape:grid type="xygrid" id="grid1180" originx="36.302415" originy="-402.41506"/>
  </sodipodi:namedview>
  <metadata id="metadata5">
    <rdf:RDF>
      <cc:Work rdf:about="">
        <dc:format>image/svg+xml</dc:format>
        <dc:type rdf:resource="http://purl.org/dc/dcmitype/StillImage"/>
        <dc:title/>
      </cc:Work>
    </rdf:RDF>
  </metadata>
  <g inkscape:groupmode="layer" id="layer12" inkscape:label="birds" transform="translate(36.302406,-402.41508)">
    <g id="g1130" transform="matrix(0.05561461,0,0,0.05561461,-36.302326,402.41502)" style="display:inline">
      <path d="m 275.097,265.348 c 3.155,-0.136 14.569,-8.704 22.104,-7.079 3.123,0.672 6.122,-0.741 8.675,-2.405 3.26,-2.485 7.752,-0.399 11.172,-2.553 4.802,-2.392 29.629,-12.083 32.683,-13.964 12.597,-7.125 25.296,-14.022 38.303,-20.382 -2.451,5.631 -6.942,10.203 -8.573,16.244 2.417,-0.057 5.13,0.387 7.182,-1.231 2.622,-1.402 4.377,-5.107 7.752,-4.48 15.467,2.837 11.6,2.607 38.77,14.865 21.79,10.635 59.377,3.177 60.52,3.26 5.164,-0.388 10.864,1.334 15.503,-1.664 2.508,-1.402 6.714,0.673 7.911,-2.713 3.842,0.114 7.695,-0.159 11.08,-2.143 10.115,-3.202 26.131,13.111 30.984,15.184 10.727,2.109 20.759,6.635 31.349,9.256 0.422,-0.524 1.265,-1.573 1.687,-2.097 -2.462,-0.775 -5.016,-1.072 -7.547,-1.414 2.747,-1.014 5.631,-1.63 8.538,-2.097 -1.037,-0.901 -2.063,-1.79 -3.089,-2.668 -1.858,-5.951 -6.703,-10.077 -11.514,-13.68 -1.429,-0.134 -15.171,-6.948 -16.461,-7.569 0.08,-2.029 0.217,-4.047 0.41,-6.065 2.816,-0.444 5.597,-1.106 8.322,-1.995 4.791,-1.592 22.494,-0.548 28.727,-4.366 8.413,-4.708 19.117,-4.07 26.846,-10.02 -40.766,-2.019 -52.518,-5.231 -63.724,-7.364 -0.285,-0.422 -0.855,-1.277 -1.14,-1.699 -6.977,0.388 -14.534,-3.181 -17.681,-9.553 0.241,-9.814 3.668,3.957 0.41,-32.614 2.39,-8.645 12.17,-29.337 13.771,-31.611 1.362,-6.586 25.645,-33.867 26.436,-36.319 3.796,-0.183 6.771,-3.488 5.552,-7.307 14.471,-5.899 54.691,-45.136 67.611,-53.886 -0.331,-1.015 -0.65,-2.018 -0.958,-3.021 3.021,-2.041 5.859,-4.332 8.8,-6.486 -0.65,-0.923 -1.3,-1.847 -1.927,-2.77 3.089,-1.493 6.372,-2.964 8.356,-5.939 -2.497,0.365 -4.959,0.923 -7.444,1.231 2.896,-2.77 6.908,-4.013 9.712,-6.931 -5.574,0.011 -9.895,4.309 -15.367,4.594 0.194,-0.444 0.593,-1.334 0.787,-1.778 3.922,-2.987 8.47,-5.403 11.092,-9.781 -6.589,1.448 -11.776,6.35 -18,8.823 0.627,-4.366 5.415,-6.657 5.381,-11.16 -4.617,0.376 -6.92,4.754 -9.986,7.592 -44.297,40.489 -110.467,67.42 -112.674,67.201 -2.245,3.902 -26.776,16.062 -30.027,15.846 -1.756,4.081 -6.258,5.187 -9.598,7.558 -42.839,30.405 -7.255,11.975 -41.335,75.99 -5.392,3.454 -11.263,6.783 -17.795,7.182 -5.992,-0.081 -27.072,11.607 -42.156,10.18 -1.294,-0.098 -36.547,6.883 -37.425,7.398 -9.154,4.719 -19.71,5.392 -29.115,9.45 -5.21,2.211 -9.143,7.159 -15.047,7.718 -0.787,4.389 -5.278,6.133 -8.048,9.108 -4.811,4.822 -9.313,9.986 -12.585,15.994 -3.853,4.4 -5.631,10.18 -9.701,14.398 -3.443,0.251 -7.319,-0.752 -10.476,0.775 -1.695,2.79 -0.156,7.737 2.967,8.957 z" id="path1092"/>
      <path d="m 4170.714,776.21 c 20.354,-27.042 23.327,-30.614 25.227,-38.656 0.308,-3.659 4.229,-4.925 5.882,-7.854 9.148,-14.765 2.666,-13.242 9.451,-20.143 4.023,-3.009 4.023,-8.55 6.349,-12.676 -0.848,-5.598 6.404,-3.384 10.75,-14.797 4.665,-13.56 58.028,-86.52 122.375,-123.868 3.716,-0.547 7.262,-1.881 10.955,-2.69 19.536,3.77 27.55,16.78 43.786,11.935 6.578,-6.805 4.039,-10.825 7.113,-14.694 3.272,-4.651 3.192,-10.488 3.489,-15.902 2.029,-4.56 4.776,-8.812 7.17,-13.223 8.64,-7.468 10.043,-12.161 13.178,-23.928 -0.636,-8.038 -21.037,-3.802 -49.736,-3.659 -3.42,0.342 -5.21,-3.078 -7.775,-4.617 -5.244,-3.557 -10.613,-7.205 -16.985,-8.219 -4.169,-39.772 -3.456,-0.305 -3.728,-114.771 -0.094,-1.143 8.363,-34.271 9.929,-35.635 3.67,-3.785 6.714,-8.641 6.224,-14.135 12.779,-12.779 9.34,-14.046 14.568,-22.058 1.642,-3.215 5.415,-4.936 6.224,-8.641 9.946,-22.151 16.82,-45.919 18.217,-50.158 1.197,-2.668 -0.923,-5.426 -0.319,-8.162 1.402,-4.719 4.799,-8.709 5.597,-13.611 -6.664,-8.111 6.375,-11.509 2.405,-18.798 -1.619,1.299 -3.203,2.611 -4.788,3.864 -1.437,-6.669 5.905,-11.183 4.868,-17.692 -3.967,1.858 -5.415,5.939 -6.418,9.872 -2.793,-5.506 -2.246,-11.707 -1.96,-17.647 -4.127,1.083 -2.873,7.068 -3.42,10.419 l -0.923,0.034 c -0.103,-2.029 -0.171,-4.058 -0.183,-6.076 -2.861,0.958 -4.822,3.203 -6.726,5.358 -0.103,-2.166 -0.148,-4.332 -0.194,-6.487 -4.925,1.642 -2.782,8.037 -3.238,11.924 -1.299,-0.627 -2.531,-1.254 -3.693,-1.881 -5.232,8.196 -8.527,17.441 -13.759,25.649 0.319,0.479 0.958,1.436 1.277,1.926 -17.253,21.527 -108.857,127.281 -96.691,165.682 0.333,1.157 17.917,76.42 7.832,93.271 -6.258,2.713 -13.851,1.528 -19.767,5.312 -20.636,11.739 16.57,30.199 -7.147,60.03 -4.822,5.313 -58.626,52.23 -59.768,53.156 -22.524,22.137 -16.19,6.064 -54.444,100.567 -61.26,165.847 -13.761,41.344 -41.004,101.536 -3.352,3.557 -7.922,5.916 -10.625,10.123 1.528,-0.353 3.124,-0.741 4.753,-1.129 0.616,1.448 1.471,2.85 1.893,4.423 -0.262,2.029 -2.508,2.724 -3.785,3.944 -2.827,1.858 -4.868,4.628 -6.395,7.569 0.866,0 2.587,0 3.454,-0.011 11.422,-11.821 7.709,-7.954 16.586,-8.743 -6.646,5.934 -5.769,2.557 -7.968,12.71 7.467,-1.869 7.295,-11.741 13.531,-15.15 -0.068,3.238 -0.24,6.487 -0.251,9.735 7.364,-3.306 8.892,-12.414 13.509,-18.33 0.273,2.246 0.022,4.662 0.889,6.828 2.841,2.531 12.446,-13.679 14.25,-16.735 1.22,1.197 2.508,2.394 3.853,3.557 3.762,-6.019 8.812,-11.286 11.366,-18.023 1.514,-0.215 3.098,-0.409 4.74,-0.625 z" id="path1094"/>
      <path d="m 3517.244,935.12 c 1.584,1.094 3.169,2.382 5.141,2.839 6.167,-3.215 7.809,-10.818 7.216,-17.259 2.645,1.391 5.768,6.372 8.687,2.713 3.408,-4.891 6.623,-10.613 5.996,-16.803 2.793,1.527 7.341,4.092 9.416,0.159 2.907,-5.381 6.635,-10.75 6.646,-17.122 2.337,-0.353 5.711,0.468 6.942,-2.28 2.098,-5.825 7.854,-10.237 6.794,-16.974 4.48,-3.112 6.863,-8.162 8.789,-13.098 0.946,-4.115 -0.753,-8.561 1.197,-12.494 1.699,-4.879 5.176,-10.282 1.904,-15.287 -3.181,-4.423 -0.468,-9.427 -0.114,-14.204 -0.342,-3.214 -3.032,-5.768 -2.918,-9.085 -0.581,-4.959 1.493,-9.883 4.925,-13.417 3.887,-4.275 5.084,-10.123 7.706,-15.127 17.524,-37.885 47.081,-61.105 48.038,-62.253 11.628,2.04 23.426,2.109 35.213,1.847 4.822,-0.741 8.105,3.625 12.574,4.469 16.226,2.583 32.363,26.137 55.493,25.045 8.913,-7.403 9.844,-13.999 12.528,-19.436 0.194,-4.32 0.251,-9.143 3.705,-12.312 3.443,-2.804 4.765,-7.57 8.892,-9.598 0.103,-1.323 0.239,-2.633 0.422,-3.933 1.254,-0.148 2.553,-0.285 3.899,-0.422 0.171,-2.029 0.136,-4.115 0.855,-6.053 0.979,-1.143 11.175,-10.372 8.573,-17.077 -10.463,-8.318 -38.649,-7.505 -52.689,-10.351 -4.856,-0.046 -9.063,-2.633 -13.805,-3.124 -1.356,-2.177 -4.047,-1.858 -6.19,-2.12 -0.65,-1.288 -1.254,-2.565 -1.79,-3.83 -1.607,-0.239 -3.169,-0.479 -4.663,-0.718 -1.995,-2.086 -4.343,-3.75 -6.475,-5.632 -7.214,-31.499 26.982,-76.143 28.123,-76.913 6.84,-9.063 11.856,-19.744 21.055,-26.835 2.588,-1.596 3.386,-4.503 4.07,-7.273 12.449,-11.697 10.892,-1.805 25.17,-12.437 6.053,-2.793 13.292,-3.123 18.524,-7.695 3.808,-3.329 7.98,-6.145 12.847,-7.718 5.745,-1.915 8.915,-7.284 13.565,-10.761 -0.251,-1.277 -0.456,-2.554 -0.604,-3.819 7.49,-2.12 11.867,-8.652 17.099,-13.873 -1.049,-0.958 -2.041,-1.904 -2.998,-2.85 6.133,-2.428 9.963,-8.048 15.059,-11.97 -1.482,-2.611 -4.662,-2.28 -7.147,-2.645 5.608,-2.953 10.567,-7.034 14.284,-12.22 -0.946,-1.072 -1.835,-2.132 -2.679,-3.192 3.716,-2.075 7.809,-4.822 8.538,-9.393 -3.477,-0.183 -6.885,0.285 -10.214,1.094 0.923,-3.716 4.594,-6.19 4.298,-10.294 -5.118,-0.764 -9.097,3.055 -13.976,3.511 0.684,-4.811 3.808,-8.994 3.636,-13.999 -2.485,0.353 -4.674,1.425 -6.749,2.679 0.513,0.672 1.072,1.345 1.676,2.029 -4.309,3.945 -11.639,3.454 -15.868,-0.33 -5.185,0.156 -19.926,13.884 -23.7,16.381 -4.252,3.661 -95.325,43.456 -101.479,46.727 -93.956,42.323 -64.79,40.906 -76.138,92.553 -0.144,9.521 -11.317,26.888 -19.573,36.296 -5.32,6.561 -17,0.172 -21.716,3.408 -1.573,0.962 -36.198,6.085 -36.787,19.151 -1.516,4.389 5.073,7.945 1.995,12.038 -2.382,4.48 -8.037,7.433 -7.467,13.132 4.458,-0.764 8.824,-2.189 12.654,-4.378 5.62,3.238 10.83,7.17 16.21,10.818 -1.94,8.259 -20.572,23.948 -26.687,28.875 -55.992,45.117 -47.059,28.062 -61.934,77.073 -8.642,34.11 -3.606,131.756 -3.762,132.896 0.741,6.122 1.128,12.289 0.946,18.479 3.135,-0.65 6.201,-1.63 9.211,-2.838 2.32,6.615 -1.105,14.067 6.349,11.445 3.682,-1.151 4.366,-5.837 8.048,-7.045 1.14,2.975 2.633,5.791 4.206,8.584 4.094,0.539 6.728,-2.881 9.008,-5.754 z" id="path1096"/>
      <path d="m 2094.221,703.651 c 0.148,1.205 11.625,18.725 12.312,19.562 2.314,3.716 6.817,6.623 11.331,5.403 3.294,-2.12 5.643,-5.597 7.056,-9.199 0.125,-3.716 -0.627,-7.398 -1.015,-11.069 1.391,-0.114 2.804,-0.217 4.252,-0.296 1.676,-3.511 2.428,-7.364 3.967,-10.921 2.303,-2.326 5.449,-3.762 7.205,-6.657 2.303,-1.094 4.56,-2.291 6.965,-3.215 5.132,-13.959 -2.837,-19.169 7.866,-23.039 0.392,-1.14 8.848,-36.278 12.859,-38.713 0.973,-15.426 6.877,-14.157 4.56,-21.819 -5.231,-7.762 -38.11,10.756 -72.285,9.621 -3.84,-36.129 9.825,-33.486 17.225,-58.332 2.642,-8.7 24.675,-34.073 28.647,-38.668 5.609,-7.968 13.851,-13.508 20.075,-20.952 6.543,-7.33 16.997,-7.763 25.056,-12.562 4.902,-2.93 10.681,-3.58 15.925,-5.7 5.403,-1.995 10.077,-5.677 15.709,-7.136 0,0 44.263,-17.247 44.265,-17.248 1.14,-0.392 16.007,-11.835 28.544,-12.562 0.068,-0.786 0.205,-2.359 0.274,-3.135 3.374,-1.197 6.977,-1.801 10.226,-3.374 1.504,-1.516 2.405,-3.511 3.477,-5.346 -2.929,-0.479 -5.871,-2.132 -8.835,-1.265 -69.683,20.431 -130.193,26.31 -183.875,44.036 -49.406,15.69 -44.693,19.262 -54.615,48.106 -14.502,33.418 -17.461,40.353 -21.956,40.286 0.308,0.809 0.638,1.63 0.992,2.451 -3.055,1.379 -5.791,3.318 -8.06,5.768 -3.192,-0.513 -5.916,-2.086 -7.022,-5.255 -4.036,-0.012 -8.037,-0.319 -12.015,-0.684 -33.986,2.354 -31.239,18.796 -29.935,20.109 0.878,1.813 2.839,3.34 3.032,5.392 -1.927,2.975 -4.685,5.335 -6.703,8.253 2.496,3.785 6.954,0.673 10.51,0.867 9.184,12.742 -5.145,27.318 -16.997,37.539 -75.104,59.502 -67.964,22.595 -81.746,95.962 -0.437,13.269 -1.776,50.867 0.684,62.812 1.105,27.901 11.376,100.32 13.041,105.047 4.856,0.137 5.882,-5.198 7.74,-8.573 3.46,4.622 5.231,10.409 8.504,7.809 1.573,-2.553 2.12,-5.563 3.055,-8.367 2.337,1.174 4.811,2.166 7.524,1.961 0.809,-5.859 0.935,-11.913 -1.63,-17.384 2.61,0.798 5.073,1.995 7.672,2.918 4.868,-4.081 4.4,-11.377 4.503,-17.156 2.086,0.296 5.438,2.223 6.464,-0.661 3.249,-4.822 2.77,-10.83 4.309,-16.233 1.379,-0.479 2.816,-0.923 4.252,-1.379 10.32,-33.378 6.16,-14.168 12.015,-32.363 0.946,-3.648 -0.616,-7.797 1.607,-11.092 7.771,-14.985 2.658,-11.348 5.312,-18.627 5.2,-14.766 0.816,-16.835 1.334,-25.945 0.125,-3.659 -3.568,-7.056 -1.585,-10.636 9.959,-20.522 59.156,-82.689 77.38,-78.657 7.25,1.96 15.355,3.192 20.736,8.983 4.016,15.106 18.717,24.57 19.812,31.335 z" id="path1098"/>
      <path d="m 3498.127,582.713 c 0.251,-0.49 0.741,-1.482 0.991,-1.972 10.089,0.411 19.642,-3.237 29.32,-5.551 11.844,0.251 23.699,-0.901 35.418,-2.725 -0.217,-2.394 -0.638,-4.754 -1.345,-7.033 -10.066,0.775 -19.505,5.301 -29.673,4.97 -43.989,3.077 -207.243,-10.537 -197.202,-10.408 -47.393,-0.61 -44.895,8.358 -100.43,18.023 -10.593,1.14 -24.835,0.925 -26.755,4.355 -4.446,0.479 -8.504,2.69 -12.973,2.804 -9.03,0.639 -21.81,7.15 -20.508,20.223 0.627,3.089 6.543,4.925 3.568,8.333 -2.622,4.013 -5.654,8.082 -4.947,13.178 -141.424,122.431 -101.299,237.066 -173.832,258.634 -1.345,1.687 0.912,2.804 2.394,2.12 7.512,-1.083 14.056,-5.061 20.098,-9.439 -2.759,4.161 -6.623,7.615 -8.333,12.426 8.881,-5.634 17.986,-14.088 18.228,-14.227 -1.22,3.693 -2.656,7.296 -4.309,10.818 4.462,1.639 1.071,3.37 15.777,-15.013 0.137,2.405 0.296,4.811 0.57,7.227 5.335,-2.793 8.983,-7.877 12.175,-12.836 0,0 9.923,-3.95 18.684,-17.749 14.139,-11.235 5.29,-6.935 27.724,-24.703 4.355,-3.773 7.478,-8.687 10.408,-13.588 2.975,-3.112 7.512,-4.56 9.826,-8.402 14.837,-18.35 14.821,-21.496 17.453,-26.971 2.497,-2.839 5.768,-5.141 7.125,-8.835 2.599,-6.863 9.393,-11.092 11.217,-18.388 7.155,-1.059 16.885,-20.677 17.487,-22.525 3.222,-10.805 32.021,-41.211 35.145,-45.747 0.316,-0.511 11.598,-13.688 19.79,-21.386 1.142,-0.012 23.261,3.354 25.433,4.685 5.145,6.107 12.22,27.126 16.244,30.414 6.722,5.126 26.55,-11.088 35.852,-14.386 9.681,-3.487 6.542,-10.899 20.2,-7.626 0.467,-1.242 0.946,-2.474 1.493,-3.693 4.309,-1.801 4.754,-7.25 8.459,-9.849 1.14,-0.797 24.816,-18.717 30.232,-21.078 3.397,-1.288 5.722,-4.434 6.11,-8.048 -1.482,-2.257 -3.557,-5.05 -6.521,-4.891 -2.047,-0.101 -33.417,1.128 -34.723,-4.48 -5.734,-0.205 -11.457,0.023 -17.156,-0.194 -0.285,-0.467 -0.866,-1.391 -1.151,-1.847 -3.967,-0.661 -8.002,-0.262 -11.958,-0.411 0.103,-1.345 0.24,-2.679 0.422,-4.013 7.661,-1.982 65.568,-23.744 85.121,-23.346 3.488,0.068 6.976,-1.448 10.488,-0.353 4.64,1.505 9.245,-1.516 13.896,-0.046 3.477,1.356 6.281,-1.972 9.747,-1.756 6.418,-0.011 12.733,-1.277 19.163,-1.528 7.766,-2.807 54.405,-3.127 55.558,-3.167 z" id="path1100"/>
      <path d="m 2792.321,740.153 c -4.891,-0.41 -9.644,0.866 -14.375,1.801 2.941,-4.012 5.939,-7.991 8.595,-12.209 -6.498,-0.672 -11.571,4.161 -17.612,5.586 -0.308,-3.26 0.958,-6.202 2.462,-8.994 -4.959,1.311 -8.527,5.232 -12.642,8.025 -3.226,3.181 -7.98,3.83 -11.16,7.022 -19.768,19.351 -167.52,51.449 -191.855,80.641 -27.789,34.187 -55.618,66.866 -70.78,65.377 -5.916,-0.166 -36.145,4.223 -37.288,4.32 -9.695,0.544 -19.001,12.018 -11.582,20.611 3.34,4.013 -1.026,8.493 -2.075,12.54 1.003,3.648 5.78,1.345 8.458,1.436 -3.038,12.278 -55.032,33.76 -83.627,54.467 -23.319,16.085 -63.864,114.073 -64.738,116.595 -0.751,2.076 -14.142,30.841 -14.876,32.922 -8.18,24.12 -15.442,24.768 -27.04,33.925 5.597,-0.479 10.602,-3.112 15.606,-5.46 -0.069,6.817 -8.242,8.652 -9.735,14.774 10.278,-0.925 15.637,-11.128 19.619,-13.052 -1.136,13.065 -3.055,5.52 -3.534,15.424 6.668,-1.676 10.351,-8.014 14.044,-13.246 3.614,2.428 0.49,7.638 3.431,10.408 5.027,-3.112 9.086,-7.512 12.528,-12.289 1.539,1.402 3.819,3.237 5.939,1.676 4.332,-2.93 9.085,-5.768 11.616,-10.556 1.949,-0.16 3.921,-0.285 5.939,-0.376 3.75,-5.039 9.61,-8.196 12.528,-13.908 0.992,-2.086 3.408,-2.702 5.141,-4.047 2.998,-2.257 5.472,-5.153 8.003,-7.923 2.884,-3.329 3.032,-8.709 7.307,-10.784 5.358,-4.115 11.4,-9.268 12.118,-16.427 14.929,-10.734 13.225,-16.111 13.463,-23.939 3.462,-1.894 9.805,-15.35 15.845,-16.347 4.548,-0.855 7.318,-4.947 9.575,-8.63 1.585,-2.713 4.925,-3.374 7.239,-5.289 2.257,-1.744 2.998,-4.628 4.469,-6.965 1.961,-2.2 4.469,-3.83 6.543,-5.939 1.562,-2.211 2.793,-4.833 5.449,-5.973 8.846,-4.172 47.141,-43.609 68.272,-50.375 43.51,4.873 46.998,15.813 57.454,24.475 22.363,28.004 27.898,12.005 34.962,8.709 3.124,-2.622 7.581,-3.91 9.45,-7.797 0.638,-0.148 1.926,-0.445 2.565,-0.593 4.497,-11.282 6.805,-16.04 17.088,-18.399 3.17,-3.629 20.684,-17.633 21.192,-25.535 -15.926,-7.475 -47.898,-10.001 -66.722,-19.334 -3.898,-0.08 -7.49,-1.265 -10.864,-3.123 -0.479,-5.198 0.445,-11.685 6.11,-13.668 3.581,-13.488 39.073,-41.063 39.921,-42.213 4.434,-3.158 7.523,-8.196 12.973,-9.77 4.024,-1.197 4.571,-6.737 9.154,-6.783 4.138,-0.433 6.566,-3.944 9.61,-6.327 20.686,-8.445 0.299,-2.58 20.781,-11.126 2.383,-1.174 1.949,-4.195 1.664,-6.349 2.805,-1.664 5.974,-2.884 8.311,-5.267 3.34,-4.423 9.667,-4.32 13.52,-8.219 5.192,-5.349 20.159,0.309 30.79,-14.819 13.641,-1.348 19.766,-12.63 22.879,-13.611 6.156,-2.212 12.927,-5.312 15.435,-11.856 5.039,-2.075 9.268,-5.517 13.782,-8.493 -0.342,-1.322 -0.661,-2.622 -0.946,-3.921 4.035,-1.927 7.535,-4.742 11.24,-7.239 -0.08,-0.627 -0.239,-1.892 -0.331,-2.519 -1.243,-0.467 -2.439,-0.946 -3.591,-1.414 4.366,-1.493 8.071,-4.275 11.525,-7.284 -5.359,-3.605 -5.789,-0.311 -15.07,-0.535 -2.634,-3.088 10.173,-4.486 15.848,-11.812 z" id="path1102"/>
      <path d="m 1130.58,871.921 c -0.274,-2.166 -0.547,-4.332 -0.798,-6.486 -1.79,0 -3.557,0.046 -5.312,0.114 -1.436,1.334 -2.645,3.534 -4.891,3.374 -1.858,0.433 -1.812,-2.063 -2.348,-3.135 0.809,-0.239 2.439,-0.718 3.249,-0.958 -0.057,-2.257 -0.296,-4.503 -0.832,-6.669 -2.896,3.751 -4.868,9.063 -10.077,10.1 -0.217,1.14 -0.422,2.291 -0.615,3.454 -5.216,5.314 -17.114,24.366 -21.078,27.12 -11.672,9.161 -36.335,36.389 -44.755,43.011 -2.565,2.127 -33.927,31.267 -64.18,72.558 -13.457,19.184 -7.362,18.431 -16.347,66.859 -0.547,5.825 -3.009,11.343 -2.736,17.27 0.855,-1.117 1.733,-2.212 2.633,-3.294 -0.015,0.265 -6.017,24.071 -7.558,34.051 -6.144,2.326 -9.929,8.618 -16.552,9.929 -9.074,1.71 -18.353,1.619 -27.462,3.158 -25.893,2.805 -25.729,22.702 -27.678,25.98 -11.392,13.362 -65.031,12.233 -81.86,18.41 -16.362,4.359 -54.311,32.528 -55.835,33.07 -2.84,3.067 -44.636,40.563 -54.957,46.59 -3.078,1.357 -6.578,1.664 -9.405,3.602 4.263,2.884 9.086,-0.091 13.44,-1.117 -1.938,2.633 -3.933,5.278 -5.187,8.333 6.167,0.958 11.229,-3.124 16.279,-5.928 0.399,2.257 -0.946,6.372 2.303,6.897 4.195,-1.756 7.775,-4.663 11.844,-6.657 2.468,2.619 1.69,6.772 16.039,-4.389 2.314,-0.502 4.685,1.277 7.034,0.388 0.032,-0.01 68.021,-22.594 68.603,-22.754 8.048,-2.132 16.256,-4.89 22.708,-10.339 3.853,-2.508 10.51,-2.633 10.795,-8.447 17.39,-6.9 74.948,-22.657 76.104,-23.073 13.919,6.201 26.778,15.139 41.791,18.684 20.133,6.101 40.41,-3.495 49.121,1.117 4.503,1.368 7.991,5.312 12.904,5.289 7.535,-0.239 9.61,9.165 16.358,10.989 4.286,3.101 8.766,-0.639 12.756,-2.348 1.265,-4.822 7.49,-6.281 7.934,-11.639 2.724,-0.672 5.438,-1.391 8.196,-2.006 1.3,-3.443 2.155,-6.999 3.009,-10.556 20.656,-32.949 7.43,-16.766 17.567,-30.494 0.524,-2.006 0.217,-4.104 0.251,-6.133 -5.442,-1.79 -56.924,-2.256 -59.449,-4.583 -4.754,-3.397 -9.827,-6.372 -15.287,-8.47 3.831,-14.425 0.01,-15.659 2.496,-23.016 0.969,-2.804 -0.912,-5.574 -0.524,-8.39 6.736,-17.443 13.467,-44.927 16.472,-49.759 1.414,-2.519 1.471,-5.449 2.132,-8.173 8.705,-15.384 16.931,-30.674 27.291,-63.986 19.786,-10.483 11.983,-18.537 20.04,-23.244 8.515,-5.775 23.554,-40.26 28.111,-44.846 5.145,-6.114 4.114,-10.543 14.717,-30.779 1.163,-2.246 -1.243,-5.187 0.821,-7.113 2.269,-2.975 4.115,-6.27 5.472,-9.758 1.163,-1.847 -0.866,-2.884 -1.995,-3.887 3.18,-3.466 7.17,-6.84 7.923,-11.742 -1.687,0.228 -3.34,0.513 -4.993,0.775 2.143,-3.579 4.697,-6.988 5.78,-11.069 -4.264,-0.707 -5.153,5.711 -9.462,4.115 z" id="path1104"/>
      <path d="m 1319.402,1373.138 c 1.14,-0.752 14.392,-10.843 18.741,-17.772 3.249,-2.77 7.592,-4.833 8.926,-9.256 1.984,-6.247 9.074,-8.789 11.445,-14.854 30.32,-32.957 50.06,-56.279 51.07,-57.42 0,0 34.458,3.488 34.461,3.488 4.172,2.918 5.324,8.504 8.139,12.597 6.317,8.485 7.396,25.678 20.531,23.426 39.754,-9.601 14.464,-3.706 29.673,-5.643 1.14,-0.555 16.166,-8.351 21.522,-8.105 2.531,-2.531 5.107,-5.004 7.535,-7.626 2.451,-0.068 4.936,0.034 7.398,-0.297 9.541,-5.859 19.014,-12.152 26.812,-20.314 -6.625,-7.571 -15.423,-5.372 -25.889,-9.758 -5.331,-5.718 -44.533,-15.421 -48.289,-23.666 -6.019,-1.653 -9.872,-7.204 -15.264,-10.134 1.858,-2.987 3.26,-6.441 6.019,-8.744 40.69,-27.155 83.31,-38.796 85.349,-38.918 2.227,-0.101 42.76,-17.896 43.9,-18.775 0.457,-0.442 15.974,-2.795 22.115,-7.569 5.688,-3.317 13.018,-3.545 17.92,-8.265 1.149,-0.484 42.892,-16.463 48.083,-21.5 2.633,-2.462 6.521,-2.223 9.758,-3.42 -1.813,-2.599 -5.107,-1.892 -7.797,-2.314 4.127,-1.596 8.641,-1.881 12.768,-3.534 0.205,-0.502 0.616,-1.516 0.832,-2.018 -7.991,0.821 -15.937,1.79 -23.734,3.659 4.965,-5.021 21.336,-6.639 22.776,-11.605 -6.555,1.072 -12.654,3.956 -19.197,4.856 0.524,-1.892 1.619,-3.511 2.724,-5.096 -4.229,-0.444 -7.535,2.736 -11.297,4.058 -54.412,19.084 -13.912,5.76 -83.639,18.889 -69.21,6.932 -117.372,8.846 -164.337,46.533 -56.323,39.066 -46.185,14.185 -88.484,30.232 -3.841,1.335 -17.054,8.749 -4.685,23.688 -2.155,4.685 -5.928,9.53 -3.238,14.842 3.431,-2.018 6.099,-5.7 10.351,-5.928 -11.892,15.82 -73.019,49.245 -89.19,84.608 -16.938,32.135 -45.454,138.025 -45.724,139.166 -0.672,0.114 -2.029,0.342 -2.702,0.467 -2.672,27.586 -10.575,23.456 -16.792,39.522 5.403,-0.445 7.592,-5.928 11.764,-8.493 -0.844,5.233 -3.044,10.157 -3.705,15.435 8.25,-2.43 9.359,-17.867 14.204,-20.28 -0.878,5.233 -1.767,10.579 -0.103,15.789 6.243,-4.428 5.434,-16.804 9.792,-17.875 0.125,1.767 0.251,3.557 0.388,5.369 0.695,-0.171 2.075,-0.524 2.77,-0.695 3.773,-4.355 3.944,-12.175 10.271,-13.896 1.078,-1.778 10.151,-14.876 12.22,-16.256 3.716,-2.531 5.107,-6.988 7.832,-10.374 2.041,-2.588 3.374,-5.643 5.392,-8.231 6.888,-5.149 49.998,-59.373 50.585,-67.993 z" id="path1106"/>
      <path d="m 164.852,1814.12 c 35.84,-1.484 39.98,-6.499 48.106,5.939 7.364,5.358 17.225,6.156 24.053,12.391 5.415,4.617 12.517,6.315 18.604,9.826 4.047,2.428 8.949,1.482 13.406,1.197 6.466,-17.258 5.709,-17.834 14.147,-24.806 3.386,-0.536 6.703,0.866 10.066,1.22 0.011,-0.935 0.023,-2.804 0.034,-3.739 -1.573,-0.034 -3.135,-0.034 -4.697,-0.011 -1.083,-5.278 0.65,-10.271 1.607,-15.367 5.084,-4.64 8.06,-11.878 5.392,-18.581 3.796,-1.345 7.091,-3.716 10.807,-5.21 4.92,-8.267 11.081,-20.213 3.557,-24.395 -15.563,-0.632 -84.411,4.688 -94.149,0.901 -4.016,-30.416 2.629,-34.464 5.449,-45.667 1.431,-5.08 25.861,-54.181 27.382,-56.93 3.374,-3.18 4.811,-7.626 6.304,-11.867 5.237,-8.666 4.689,-4.295 5.358,-15.002 0.992,-0.638 1.984,-1.265 2.975,-1.87 1.247,-17.704 11.266,-8.679 12.95,-23.403 -0.347,-4.098 17.578,-8.595 14.762,-23.711 6.646,-2.884 11.935,-8.299 15.492,-14.512 0.638,-2.656 -0.125,-5.552 0.912,-8.06 5.465,-5.214 14.393,-14.685 8.88,-19.835 4.013,-3.568 6.418,-8.481 7.9,-13.565 -1.721,-0.809 -3.431,-1.562 -5.141,-2.314 4.788,-2.85 6.566,-8.196 8.401,-13.109 -2.725,-1.208 -5.7,-1.094 -8.607,-1.037 2.052,-4.263 6.429,-7.501 6.441,-12.562 -5.381,0.171 -10.043,3.237 -15.184,4.526 2.998,-5.563 9.712,-8.914 9.781,-15.937 -6.004,0.363 -12.961,5.884 -13.782,7.045 -1.414,-0.376 -3.796,0.274 -4.423,-1.379 -0.262,-6.418 6.68,-10.533 5.232,-17.179 -5.13,0.684 -9.028,4.571 -11.172,9.074 -2.964,3.203 -5.928,6.646 -9.792,8.812 -0.992,-4.058 1.528,-9.063 -1.585,-12.357 -2.329,-4.749 -8.286,6.093 -9.131,9.701 -0.855,5.495 -6.019,8.515 -9.017,12.802 -4.218,4.868 -6.6,11.468 -12.346,14.888 -2.115,1.277 -81.851,73.764 -93.101,87.207 -52.511,52.038 -24.682,38.048 -33.857,97.227 -9.556,33.967 -10.559,29.544 -18.741,35.84 -4.412,3.534 -9.929,-0.103 -14.819,1.186 -6.851,1.539 -14.067,1.733 -20.588,4.571 -18.304,8.85 -4.729,21.51 -7.159,25.946 -1.573,2.622 -3.089,5.346 -2.987,8.55 2.987,0.08 6.03,-0.205 8.983,0.399 2.564,1.613 13.292,8.81 11.628,12.927 -57.323,67.882 -64.935,59.888 -73.151,86.842 -7.774,33.744 -10.604,74.659 -9.94,97.124 0.065,9.845 0.583,28.948 2.884,38.428 3.388,37.39 8.524,34.673 15.139,27.815 3.48,4.3 5.521,12.996 9.154,7.661 3.819,-3.158 4.172,-8.572 7.056,-12.266 2.166,2.736 3.876,6.692 7.889,6.931 5.107,-2.189 5.392,-8.219 6.224,-12.927 2.308,1.154 13.607,12.167 13.303,-16.039 2.554,1.334 5.153,2.599 7.82,3.716 8.38,-4.437 7.068,-18.212 8.208,-19.322 1.539,0.251 3.009,0.764 4.514,1.254 7.049,-5.447 9.722,-14.201 9.644,-19.072 1.425,-0.422 2.918,-0.627 4.252,-1.288 5.858,-2.778 7.77,-19.303 11.331,-23.084 7.063,-8.4 5.877,-12.802 4.4,-19.003 10.737,-8.378 5.41,-14.447 4.457,-18.513 2.41,-4.152 5.189,-3.094 2.964,-13.509 3.477,-4.491 6.486,-9.313 9.576,-14.056 3.273,-5.057 10.184,-28.856 14.204,-33.708 0.279,-0.328 21.741,-36.754 21.741,-36.754 z" id="path1108"/>
      <path d="m 2509.93,1715.023 c -59.806,-6.681 -197.129,-78.646 -223.204,-70.016 -9.076,0.868 -17.33,16.444 -25.512,22.423 -19.656,16.777 -14.166,10.015 -56.394,22.286 -4.847,1.561 -44.903,0.823 -51.252,19.562 0.011,4.183 1.881,8.299 4.822,11.285 -15.057,16.029 -47.211,14.114 -73.208,25.068 -12.261,5.589 -15.702,24.778 -19.334,38.85 -11.063,38.911 37.519,119.217 37.995,120.357 0.604,0.171 1.824,0.536 2.428,0.707 1.732,3.887 5.004,6.806 6.771,10.681 0.547,0.148 1.653,0.456 2.211,0.604 1.208,5.654 5.301,10.009 8.892,14.341 2.634,2.998 5.711,-1.824 8.892,-1.106 6.749,-0.74 5.359,11.241 16.381,1.562 2.576,-0.057 5.358,0.342 7.74,-0.992 1.883,-10.843 0.217,-42.156 0.217,-42.156 1.551,-5.643 2.793,-11.605 0.49,-17.236 -2.36,-5.335 1.106,-10.739 0.228,-16.199 -0.251,-4.047 -4.321,-7.136 -3.238,-11.331 1.437,-5.677 -0.273,-11.525 -3.237,-16.393 3.082,-11.836 0.358,-7.953 -0.433,-16.598 14.732,-25.054 11.606,-26.142 42.281,-44.527 2.884,-1.243 5.746,-3.044 8.903,-3.363 40.496,13.829 38.89,3.144 64.761,5.848 7.718,3.26 14.375,9.279 23.005,10.18 7.387,2.086 15.344,-0.65 22.526,2.428 10.914,2.937 38.28,-2.55 40.742,-9.074 -3.311,-2.991 -14.969,-10.121 -27.599,-13.064 0.228,-0.479 0.673,-1.448 0.901,-1.938 -4.172,-1.322 -7.398,-4.708 -11.81,-5.301 -2.143,-3.226 -5.232,-5.609 -7.467,-8.732 -4.286,-2.998 -7.033,-7.512 -10.214,-11.525 -0.787,-2.246 -0.946,-4.64 -1.847,-6.817 3.988,-3.299 39.122,-40.17 67.771,-29.286 72.115,28.353 116.975,28.739 140.386,29.388 4.309,-0.547 9.199,0.866 13.041,-1.778 -2.862,-2.233 -7.992,-3.533 -6.635,-8.138 z" id="path1110"/>
      <path d="m 4833.27,1765.831 c -0.73,0.103 -2.189,0.308 -2.918,0.41 0.947,12.822 -22.917,27.76 -33.093,30.813 -5.392,2.018 -11.092,-0.091 -16.427,-1.06 -4.457,-0.433 -6.213,-6.361 -11.001,-5.552 -11.925,0.653 -36.949,5.358 -37.79,16.792 -0.558,4.15 2.611,7.375 3.933,11.069 -2.086,4.092 -6.897,6.828 -6.384,11.981 3.431,-0.615 6.623,-2.839 10.18,-2.69 3.021,1.87 5.13,5.13 7.181,8.071 -5.409,12.294 -23.017,16.059 -26.732,17.738 -36.791,15.131 -61.841,3.977 -32.933,79.467 6.188,15.785 38.559,68.716 64.18,97.649 1.721,3.773 4.56,6.817 8.401,8.561 7.501,3.397 10.59,12.494 18.764,14.819 1.744,-4.651 1.675,-9.644 1.539,-14.523 6.602,0.054 4.221,3.568 15.344,5.574 0.707,-2.736 3.978,-5.962 1.539,-8.584 -1.345,-1.664 -3.078,-2.907 -4.229,-4.617 0.103,-1.642 0.399,-3.249 0.775,-4.811 3.374,0.798 6.668,2.2 10.203,2.553 5.677,-1.197 3.204,-8.059 3.488,-12.152 2.747,-0.661 5.415,-1.733 7.968,-3.044 0.285,-3.454 0.228,-6.942 0.821,-10.351 7.726,-9.596 2.525,-8.461 5.905,-22.423 -0.273,-7.877 2.303,-15.652 0.923,-23.495 -4.273,-26.803 -1.395,-13.563 -9.199,-23.871 -1.665,-3.26 -1.916,-7.501 -5.05,-9.747 -4.354,-3.203 -9.929,-5.21 -12.505,-10.271 -1.437,-2.873 -3.899,-4.822 -7.137,-4.913 1.779,-36.738 59.358,-25.901 86.546,-9.576 13.976,7.377 15.571,-3.265 28.692,-5.814 -0.968,-4.149 -2.804,-9.507 1.118,-12.676 3.431,-3.363 4.97,-8.823 9.792,-10.579 5.711,-2.474 9.769,-7.82 16.073,-9.165 0.581,-1.345 1.174,-2.69 1.869,-3.99 1.699,-0.091 3.443,-0.16 5.278,-0.194 1.128,-3.237 1.334,-6.669 0.901,-10.043 -3.739,0.091 -7.592,1.402 -11.172,-0.046 -6.231,-2.525 -48.061,-3.627 -49.201,-3.728 1.824,-5.255 3.773,-10.488 6.213,-15.492 4.166,-8.191 23.23,-19.285 25.603,-20.018 20.46,-6.979 20.134,-0.446 28.442,1.904 5.539,1.675 35.292,15.245 36.524,16.005 7.535,4.617 16.518,5.848 24.304,9.975 v -10.875 c -154.168,-98.255 -161.057,-80.436 -166.728,-59.081 z" id="path1112"/>
      <path d="m 682.758,1790.135 c -2.006,-0.103 -4.013,-0.194 -5.996,-0.319 2.371,-1.63 5.301,-2.519 7.25,-4.708 0.422,-1.528 0.114,-3.215 -1.311,-4.013 -4.115,0.422 -8.139,1.436 -12.198,2.109 0.912,-2.804 2.109,-5.472 3.568,-8.003 -4.038,-1.489 -1.069,-3.183 -17.111,5.928 -4.708,2.132 -10.1,2.85 -14.147,6.293 0,0 -117.159,25.188 -170.378,43.98 -20.833,6.553 -21.918,59.124 -47.901,69.526 -2.097,1.208 -3.693,-1.835 -5.768,-1.243 -29.334,7.29 -27.724,7.589 -52.187,-2.987 -36.819,-13.49 -78.483,-13.625 -120.972,7.74 -4.605,2.679 -7.934,-3.568 -12.654,-2.998 0.057,0.57 0.182,1.687 0.239,2.257 -0.502,0.342 -1.527,1.026 -2.029,1.368 0.901,1.527 1.721,3.169 2.975,4.526 2.263,0.307 19.942,0.181 25.672,3.807 5.223,3.964 46.846,7.508 50.637,9.781 33.36,1.608 38.458,0.894 43.25,-7.638 3.112,-0.046 6.201,-0.456 9.177,-1.368 -8.029,13.331 1.062,10.102 -0.205,17.008 -0.798,3.523 -4.742,4.719 -6.737,7.444 -0.228,1.642 -0.764,3.967 1.186,4.833 3.671,-0.445 6.429,-3.215 9.929,-4.149 32.226,21.978 36.522,34.108 62.869,34.29 10e-4,0 24.588,2.77 24.589,2.77 17.716,2.662 32.061,-5.495 36.946,-5.187 3.921,-0.171 7.786,1.585 11.685,0.513 4.594,-0.342 8.755,-2.736 13.395,-2.736 4.047,0.228 6.965,-3.01 10.567,-4.252 2.205,-0.599 35.696,-2.747 27.427,-8.527 -8.071,-4.446 -17.635,-3.397 -26.493,-3.078 0.285,-0.627 0.844,-1.87 1.129,-2.485 -16.668,-5.294 -31.758,-7.647 -34.883,-18.923 4.159,-7.944 -1.563,-3.966 14.671,-28.636 1.277,-0.125 2.576,-0.228 3.864,-0.308 0.023,-3.75 1.79,-7.022 4.902,-9.051 10.384,-16.749 38.037,-36.259 44.709,-38.474 3.34,-0.422 6.771,-0.251 10.032,-1.243 1.143,-0.218 46.89,-12.286 65.513,-24.635 5.973,-2.496 12.893,-3.602 17.453,-8.641 -0.342,-1.003 -0.661,-1.995 -0.958,-2.964 4.491,-1.299 8.857,-3.203 12.494,-6.19 -0.399,-1.391 -0.798,-2.736 -1.163,-4.081 4.355,-0.536 8.835,-2.086 11.719,-5.54 -1.505,-0.992 -2.975,-1.995 -4.036,-3.431 4.309,-0.764 8.493,-2.314 11.856,-5.198 -0.866,-1.081 -1.732,-2.13 -2.576,-3.167 z" id="path1114"/>
      <path d="m 3941.137,1801.227 c -6.395,-0.068 -12.3,3.762 -18.764,2.177 1.71,-2.816 6.03,-3.146 6.692,-6.657 -11.313,1.902 -4.717,5.366 -22.469,5.768 -0.206,-3.557 1.345,-6.669 3.42,-9.427 -5.632,-0.422 -7.387,6.555 -12.152,8.413 -3.522,1.106 -6.429,3.306 -8.629,6.224 -6.247,-0.581 -11.343,3.534 -17.271,4.469 -40.776,7.501 -124.837,3.867 -168.988,15.72 -17.327,7.026 -33.648,43.358 -69.674,46.852 -1.892,-0.399 -3.26,-1.79 -4.742,-2.781 -15.21,3.155 -49.321,2.393 -32.785,29.662 -2.006,3.249 -3.887,6.692 -3.979,10.613 3.431,0.228 8.299,-3.146 10.59,0.855 0.661,1.528 2.827,3.272 1.448,5.005 -8.377,13.365 -38.992,38.667 -42.771,41.438 -18.824,16.468 -20.104,13.263 -27.769,44.105 -8.468,34.088 -6.05,98.49 -8.139,113.528 -0.014,0.148 0.781,6.784 -4.126,49.463 -3.99,3.124 -0.308,9.393 -2.827,13.486 -1.79,2.953 -4.571,5.426 -5.027,9.04 9.15,-5.624 7.017,-9.245 11.844,-9.485 0.239,4.56 0.775,9.12 1.892,13.588 -1.687,1.676 -2.303,3.842 -1.984,6.201 6.27,-1.459 5.198,-9.804 9.587,-13.098 0.524,2.383 1.676,4.594 3.42,6.372 -1.506,7.116 5.647,11.224 6.498,-11.947 0.525,-0.034 1.573,-0.114 2.109,-0.148 2.519,2.77 3.967,6.315 5.882,9.542 0.73,-0.046 2.189,-0.137 2.918,-0.182 2.223,-3.853 4.765,-7.786 4.799,-12.403 0.433,-3.146 -0.912,-7.011 1.767,-9.393 1.687,3.534 3.044,7.319 5.483,10.465 4.916,0.691 2.418,-1.339 8.573,-11.536 2.075,-2.964 1.208,-6.749 1.47,-10.1 0.764,0.034 2.269,0.091 3.032,0.125 0.923,1.174 1.869,2.36 2.896,3.602 9.203,-4.966 6.345,-8.582 11.513,-18.125 9.566,-4.735 15.036,-20.552 15.173,-24.213 11.406,-8.509 9.177,-19.282 9.61,-22.697 9.811,-17.808 4.713,-16.242 2.212,-27.427 1.117,-4.126 5.723,-8.116 3.158,-12.505 -1.151,-2.759 -3.226,-5.791 -1.562,-8.778 2.553,-4.801 10.72,-33.954 13.577,-38.759 1.835,-5.415 7.478,-8.755 8.06,-14.648 19.373,-14.247 23.789,-68.725 99.575,-17.647 26.224,17.888 30.944,-7.783 39.625,-9.826 5.255,-1.277 9.074,-5.301 13.486,-8.174 9.244,-6.553 9.245,-5.462 6.35,-13.896 -9.916,-0.553 -51.143,-18.557 -52.928,-18.889 -3.694,-4.776 -10.077,-5.346 -15.116,-7.923 -1.037,-1.584 -0.844,-3.454 -0.65,-5.187 -0.798,-0.057 -2.394,-0.182 -3.192,-0.239 -2.753,-23.566 49.487,-53.808 71.624,-55.026 8.242,-1.106 16.723,-1.06 24.726,-3.636 3.887,-1.288 7.968,-1.687 12.072,-1.665 5.518,0.372 4.043,-4.012 15.948,-4.514 20.996,0.938 21.369,-4.116 27.154,-5.837 5.734,-1.835 12.015,-2.269 17.236,-5.574 2.804,-1.277 4.412,-4.377 7.569,-5.038 4.56,-1.357 9.222,-3.203 12.505,-6.828 2.622,-3.237 6.999,-3.819 10.613,-5.495 -0.273,-0.501 -0.832,-1.505 -1.106,-2.006 -3.579,0.011 -7.136,0.08 -10.647,-0.182 5.164,-4.092 13.679,-0.479 17.806,-6.133 -2.531,-0.319 -5.073,-0.365 -7.387,-1.334 3.466,-0.445 7,-0.559 10.545,-0.718 -0.194,-0.49 -0.593,-1.482 -0.786,-1.984 -1.368,-0.479 -2.679,-0.946 -3.921,-1.425 1.799,-0.755 4.057,-1.176 4.934,-3.228 z" id="path1116"/>
      <path d="m 1777.358,2381.648 c -1.14,0 -84.941,-0.637 -99.313,3.226 -11.936,3.093 -18.294,-0.495 -30.049,19.083 -4.009,4.779 -17.731,20.752 -22.366,24.372 -5.05,4.047 -8.858,9.724 -14.899,12.426 -2.143,0.98 -4.64,1.961 -5.324,4.469 -3.864,0.513 -7.649,1.539 -11.536,1.676 -3.933,-1.014 -7.148,-3.91 -11.194,-4.537 -5.142,-0.959 -27.332,0.347 -29.605,11.24 -0.149,4.669 7.004,20.108 5.107,27.986 -3.021,5.164 -7.911,8.949 -12.585,12.563 -75.363,50.776 -78.589,10.868 -87.515,189.587 -1.721,13.412 -4.374,61.425 -4.263,62.333 1.619,0.137 3.283,0.274 4.948,0.502 1.026,1.414 1.06,4.742 3.522,4.206 3.135,-4.161 3.066,-9.336 4.07,-14.158 0.718,-0.022 2.155,-0.057 2.873,-0.08 0.148,1.744 0.296,3.522 0.467,5.346 1.471,0.262 3.363,1.961 4.503,0.159 2.987,-3.374 1.995,-8.185 2.428,-12.255 3.443,0.821 4.822,4.833 8.356,5.472 2.291,-4.252 3.032,-9.336 5.609,-13.303 6.122,-3.625 7.079,-11.263 10.852,-16.632 7.421,-5.05 5.951,-15.948 12.87,-21.363 3.088,-4.882 11.08,-40.1 13.007,-46.134 1.687,-5.232 -0.525,-10.761 1.231,-15.948 1.391,-4.981 2.006,-10.214 0.969,-15.298 -1.917,-5.589 30.036,-44.757 47.149,-55.049 21.357,-12.956 33.145,-37.72 72.889,-1.026 2.314,2.348 3.055,6.372 6.703,7.204 0.137,1.197 0.296,2.428 0.49,3.682 3.158,1.539 5.996,3.785 7.034,7.342 5.996,-0.824 15.685,-7.44 17.943,-12.414 0.445,0.08 1.334,0.228 1.778,0.308 0.467,-2.109 1.003,-4.195 1.585,-6.247 2.474,-0.023 4.982,-0.011 7.49,0.011 -0.57,-2.953 0.262,-5.882 0.729,-8.743 26.192,-14.995 22.575,-12.292 25.797,-20.884 -2.884,-2.166 -6.179,-3.625 -9.211,-5.518 -3.237,-2.132 -7.74,-0.444 -10.716,-3.124 -2.291,-1.961 -4.97,-3.237 -8.014,-3.089 -1.072,-1.356 -2.166,-2.656 -3.203,-3.956 -3.522,0.205 -6.235,-1.813 -8.082,-4.605 -1.345,-0.182 -2.656,-0.319 -3.956,-0.433 0.323,-13.885 -4.134,-21.108 18.251,-46.579 41.989,-55.199 62.054,-35.116 122.568,-50.625 4.549,-1.231 9.336,-0.217 13.942,-1.163 5.118,-0.992 9.621,-4.503 15.036,-4.058 4.175,0.248 28.327,-8.104 29.468,-8.196 2.189,-0.456 4.4,-0.912 6.635,-1.311 -0.068,-1.06 -0.125,-2.074 -0.16,-3.066 3.773,-0.707 8.413,0.011 11.16,-3.169 -2.724,-0.228 -5.415,-0.262 -8.105,-0.296 l -0.046,-0.878 c 3.796,0 8.025,-0.148 10.533,-3.488 -10e-4,0 -72.65,5.889 -117.85,4.432 z" id="path1118"/>
      <path d="m 554.341,2489.01 c -2.291,0.901 -4.628,1.699 -6.999,2.371 0.091,-0.821 0.274,-2.451 0.365,-3.272 0.878,-0.638 1.767,-1.242 2.656,-1.812 0.296,-2.816 1.949,-5.039 3.899,-6.92 -3.249,-1.927 -7.626,1.106 -7.889,4.663 -2.348,0.638 -4.742,1.117 -7.148,1.459 0.205,-1.676 0.456,-3.249 0.73,-4.845 1.334,-0.365 2.736,-0.581 3.933,-1.288 -0.228,-1.014 -0.718,-1.858 -1.471,-2.565 0.684,-1.459 1.311,-2.975 1.892,-4.412 -5.441,-0.329 -5.898,6.147 -14.66,13.623 -1.003,0.41 -2.371,2.28 -3.363,1.06 -0.98,-3.579 -1.129,-7.661 -3.944,-10.396 -3.044,1.368 -2.052,5.358 -3.295,7.991 -0.98,4.149 -5.255,6.201 -6.68,10.111 -1.619,3.944 -3.819,7.626 -5.825,11.4 -51.2,54.85 -78.409,72.38 -99.655,94.172 -41.632,49.438 -16.706,44.748 -37.197,97.489 -2.918,6.292 -3.853,14.056 -10.043,18.262 -9.805,12.257 -35.701,1.637 -55.026,21.557 -0.08,1.698 -0.148,3.42 -0.217,5.198 -46.636,10.989 -62.68,4.384 -114.543,46.259 -40.783,35.738 -36.052,23.598 -49.474,24.486 -0.034,0.889 -0.114,2.668 -0.148,3.557 9.245,3.032 19.596,1.55 28.294,-2.576 -0.365,1.619 -0.695,3.271 -0.98,4.981 3.523,-0.205 7.022,-0.991 10.18,-2.61 3.552,-1.556 94.09,-22.126 106.29,-21.534 6.84,0.319 12.448,-4.514 19.231,-4.731 0.068,-1.482 0.137,-2.93 0.205,-4.332 9.826,-2.462 20.154,-3.169 29.662,-6.703 8.673,-7.14 14.624,-1.188 28.077,1.265 43.812,8.058 29.979,2.021 53.612,1.459 5.301,-2.348 11.194,-1.972 16.871,-1.938 -2.816,-3.603 3.785,-2.143 5.78,-2.303 -0.057,-0.593 -0.148,-1.779 -0.205,-2.371 3.682,1.471 7.535,2.326 11.365,3.329 5.495,3.272 11.856,4.263 17.772,6.532 -0.638,0.399 -1.904,1.197 -2.542,1.596 8.173,1.858 16.142,5.802 24.737,4.343 0.627,-1.3 1.265,-2.565 1.915,-3.785 8.88,-2.037 20.644,-14.563 24.794,-20.93 3.443,-3.659 5.335,-8.903 9.986,-11.251 1.975,-0.943 6.195,-7.818 -15.458,-8.436 -5.118,-0.456 -10.488,-0.148 -15.059,-2.816 -7.661,0.513 -14.888,-2.269 -22.457,-2.588 -0.969,-1.094 -1.915,-2.166 -2.861,-3.18 -5.973,-0.798 -12.756,-0.787 -17.362,-5.255 -6.144,-5.301 -6.338,-14.797 -3.511,-21.83 4.201,-9.166 4.259,-15.624 19.698,-40.651 3.329,-5.996 5.837,-12.403 8.88,-18.524 24.746,-32.849 16.958,-32.599 22.662,-42.304 3.921,-3.488 10.465,-3.511 13.064,-8.527 1.3,-2.029 1.562,-4.48 2.645,-6.566 2.836,-7.078 16.337,-8.576 16.142,-24.863 11.881,-11.315 7.233,-15.41 12.711,-23.745 3.215,-5.107 5.061,-11.274 3.511,-17.259 3.26,-4.685 4.047,-10.419 4.48,-15.948 -0.467,-0.331 -1.391,-0.992 -1.858,-1.311 1.402,-3.42 2.964,-6.794 3.705,-10.408 -0.239,-2.656 -3.066,-2.132 -4.879,-1.847 2.052,-2.736 4.218,-5.426 5.814,-8.447 -0.204,-0.522 -0.603,-1.56 -0.809,-2.084 z" id="path1120"/>
      <path d="m 4775.679,2675.758 c -7.992,0.707 -15.322,4.149 -23.096,5.7 0.251,-0.65 0.741,-1.938 0.98,-2.576 3.01,-1.003 6.532,-1.334 8.401,-4.298 -2.063,0.593 -3.967,1.516 -5.973,2.041 -3.101,-0.593 -5.757,-5.187 -8.938,-2.953 -2.929,1.665 -6.566,2.098 -8.698,4.879 -1.972,2.371 -5.313,2.246 -8.025,2.896 0.08,0.581 0.239,1.733 0.32,2.314 -70.547,33.474 -140.217,10.643 -236.314,74.565 -26.434,17.478 -43.682,-6.354 -68.147,2.451 -4.218,0.821 -8.355,3.568 -9.245,8.014 -1.71,4.571 1.459,8.903 2.975,13.075 -7.407,2.381 -61.471,-0.621 -110.462,16.176 -85.766,35.813 -103.606,61.099 -146.291,56.804 0.194,0.41 0.593,1.219 0.798,1.63 5.734,1.288 11.798,3.522 17.692,1.721 -0.889,1.14 -1.778,2.303 -2.553,3.522 5.552,0.045 10.693,-2.371 16.028,-3.659 -0.251,0.661 -0.764,1.995 -1.026,2.656 16.142,-4.106 17.794,-6.489 18.741,-2.576 5.871,-1.448 11.627,-3.431 17.612,-4.503 0.969,0.559 1.927,1.243 2.873,2.063 8.492,-1.402 17.167,-4.628 25.763,-2.075 6.486,-0.604 13.063,-1.22 19.458,-2.725 3.375,0.399 6.601,1.881 10.123,1.653 6.224,0.513 11.97,-3.226 18.228,-2.246 14.592,2.645 16.952,-5.546 22.753,-4.663 4.081,0.365 8.641,-0.433 10.761,-4.412 6.646,-0.513 13.338,0.194 19.995,-0.342 1.14,-0.416 58.062,-17.401 72.946,-13.748 12.143,-6.777 1.876,3.356 61.421,30.072 8.903,5.005 13.326,14.945 21.237,21.135 2.957,0.922 67.296,-5.221 62.036,-15.184 -4.514,-4.184 -10.054,-7.467 -15.845,-9.598 -30.874,-28.612 -32.837,-28.886 -30.425,-39.636 1.091,-6.64 20.388,-15.547 21.978,-16.666 5.917,-1.015 9.895,-6.167 15.857,-7.091 12.41,-7.042 31.223,-16.202 45.074,-19.813 4.013,-2.565 8.504,-3.557 13.189,-3.979 6.601,-3.819 14.865,-4.697 20.383,-10.339 5.768,-5.268 11.17,-0.81 19.049,-6.008 5.54,-4.229 12.893,-3.784 19.311,-5.848 4.765,-0.924 7.546,-5.426 11.707,-7.535 4.515,-1.527 9.166,-2.747 13.554,-4.708 2.759,-1.721 3.09,-5.278 4.937,-7.729 23.406,-7.968 19.194,-10.659 19.664,-14.192 5.119,-1.893 9.929,-4.469 14.694,-7.136 0.49,-1.756 1.026,-3.466 1.642,-5.153 4.013,-0.878 8.116,-2.132 10.43,-5.848 -1.869,-0.137 -3.682,-0.251 -5.426,-0.342 3.522,-2.622 8.595,-2.782 11.24,-6.6 -5.825,-1.129 -11.034,2.177 -16.712,2.188 5.019,-5.699 11.942,-3.342 23.326,-11.374 z" id="path1122"/>
      <path d="m 1655.28,2844.688 c -4.298,0.046 -7.832,-2.656 -12.061,-2.975 -7.921,-4.129 -53.898,-19.679 -64.385,-23.278 -54.949,-22.246 -84.213,-22.305 -87.572,-22.913 -34.284,1.144 -23.098,4.643 -30.939,18.08 -15.048,26.844 -41.255,35.152 -50.489,29.024 3.602,-0.194 7.011,-1.71 9.245,-4.594 -29.164,2.328 -58.879,1.44 -57.933,22.32 -16.863,6.798 -89.897,-11.868 -69.606,77.745 3.123,25.71 29.578,83.187 40.127,75.123 -0.091,-3.158 -0.103,-6.304 -0.034,-9.427 14.633,12.76 8.38,9.89 14.591,5.871 -1.026,-3.842 -2.143,-7.626 -3.317,-11.388 4.959,3.66 10.077,10.214 16.985,8.14 -0.889,-3.899 -1.87,-7.752 -3.352,-11.445 13.365,7.706 11.586,-2.412 12.722,-6.669 1.414,-0.159 2.85,-0.273 4.298,-0.353 1.813,-2.918 2.964,-6.156 4.469,-9.2 3.055,-3.203 6.236,-6.76 6.988,-11.263 0.091,-4.856 4.708,-8.333 3.83,-13.349 -1.151,-5.552 3.34,-10.442 1.744,-15.925 -1.562,-4.263 1.847,-8.846 -0.855,-12.813 -2.143,-2.964 -0.331,-6.27 0.969,-9.108 -1.094,-2.36 -3.226,-5.392 -0.536,-7.478 14.928,-15.62 1.001,7.964 56.496,11.137 21.96,3.236 35.988,1.744 35.988,1.744 3.402,-10.702 23.445,14.309 54.524,15.241 -0.673,-1.562 -2.759,-2.759 -2.44,-4.469 0.103,-2.941 3.75,-2.496 5.768,-3.329 6.464,-0.912 9.177,-8.789 15.72,-9.416 4.241,-0.433 7.581,-3.215 11.297,-5.016 0.034,-1.3 0.08,-2.576 0.148,-3.808 -1.14,-0.462 -46.934,-15.137 -50.808,-20.611 -2.782,-0.228 -5.563,-0.296 -8.322,-0.353 -3.331,-5.057 -9.06,-10.005 3.032,-26.253 35.227,-32.888 39.923,-33.532 122.055,-10.032 9.77,1.801 19.345,5.757 29.445,4.925 6.008,2.166 12.608,2.759 18.65,0.307 -0.882,-4.959 -0.677,-8.271 -26.442,-14.192 z" id="path1124"/>
      <path d="m 2493.674,2871.58 c -0.24,-4.822 -5.894,-5.107 -9.542,-5.392 -5.061,0.376 -9.838,-1.904 -14.854,-1.323 -13.41,0.553 -26.797,-0.781 -41.107,-3.089 -35.763,-2.542 -25.019,-0.82 -42.167,-1.379 -27.507,-3.684 -67.298,-1.284 -103.565,10.453 -11.471,3.751 -12.051,19.457 -49.451,62.515 -4.737,0.572 -55.762,-9.442 -59.403,10.431 -6.236,-2.77 -12.642,-5.198 -19.323,-6.566 -54.933,-10.105 -49.381,-18.782 -83.684,20.359 -7.159,7.854 -6.315,19.254 -10.066,28.67 -4.35,45.773 5.598,73.649 10.898,72.615 3.192,0.342 4.24,-3.454 5.301,-5.78 2.269,4.469 3.922,10.282 9.348,11.81 3.625,-4.868 2.166,-11.012 2.713,-16.586 2.747,3.386 4.514,7.615 8.014,10.419 1.425,0.217 3.397,0.217 4.081,-1.391 0.524,-4.526 0.103,-9.085 0.251,-13.6 2.588,3.078 4.708,7.501 9.085,8.23 3.944,0.091 5.928,-4.286 6.099,-7.683 5.004,0.456 9.382,-2.952 10.419,-7.82 3.967,-0.547 7.82,-2.77 9.131,-6.749 1.938,-6.772 6.568,-1.27 8.949,-15.823 5.016,-2.394 5.916,-7.934 5.404,-12.916 1.06,-1.026 2.143,-2.006 3.26,-2.941 -0.296,-4.651 0.011,-9.302 2.211,-13.474 0.233,-1.995 10.783,-9.397 23.745,-9.017 7.302,25.06 45.414,46.384 70.461,54.251 3.226,1.311 7.261,1.014 9.826,3.728 4.218,3.773 7.797,8.321 12.642,11.388 4.605,0.707 9.416,0.41 13.429,-2.121 2.713,0.593 4.89,2.713 7.535,3.716 1.982,-14.509 27.259,-7.131 37.528,-21.579 4.605,-0.73 9.598,-1.664 12.95,-5.232 0.285,-1.448 0.308,-3.466 -1.448,-3.83 -7.549,-2.741 -19.191,-4.343 -21.534,-7.045 -0.15,-0.171 -18.975,-9.742 -20.439,-10.271 -6.373,-3.203 -13.965,-6.999 -15.561,-14.637 -0.536,-0.148 -1.619,-0.445 -2.154,-0.582 -2.217,-28.205 19.75,-44.188 26.515,-52.814 41.693,-36.413 58.647,-23.727 66.608,-27.929 4.263,-2.668 8.903,1.151 13.417,-0.262 8.333,-2.964 17.236,0.935 25.638,-1.767 6.076,-2.36 12.448,1.117 18.695,-0.616 2.599,-0.923 6.612,0.217 7.832,-2.895 9.621,0.946 18.034,-5.073 27.564,-4.982 0.137,-0.752 0.399,-2.257 0.524,-3.009 4.138,0.205 8.379,0.114 12.323,-1.368 0,-1.505 0.046,-2.975 0.114,-4.4 2.485,-0.068 5.016,0.091 7.535,-0.274 4.228,-4.159 1.528,-4.319 9.496,-5.894 -0.114,-1.63 -0.24,-3.226 -0.331,-4.776 -1.674,-0.306 -3.293,-0.568 -4.912,-0.773 z" id="path1126"/>
      <path d="m 2311.213,3001.9 c 0.182,3.75 3.339,-1.824 0,0 z" id="path1128"/>
    </g>
  </g>
  <style type="text/css" id="style912">
	.st0{fill:#808080;}
	.st1{fill:#222222;}
	.st2{fill:#B14225;}
	.st3{fill:none;stroke:#B14225;stroke-width:3;stroke-linecap:round;stroke-linejoin:round;stroke-miterlimit:10;}
	.st4{fill:#E37325;}
	.st5{fill:none;stroke:#E37325;stroke-width:3;stroke-linecap:round;stroke-linejoin:round;stroke-miterlimit:10;}
	.st6{fill:#FAA436;}
	.st7{fill:none;stroke:#FAA436;stroke-width:3;stroke-linecap:round;stroke-linejoin:round;stroke-miterlimit:10;}
</style>
</svg>