<?xml version="1.0" encoding="UTF-8" standalone="no"?>
<svg xmlns:dc="http://purl.org/dc/elements/1.1/" xmlns:cc="http://creativecommons.org/ns#" xmlns:rdf="http://www.w3.org/1999/02/22-rdf-syntax-ns#" xmlns:svg="http://www.w3.org/2000/svg" xmlns="http://www.w3.org/2000/svg" xmlns:sodipodi="http://sodipodi.sourceforge.net/DTD/sodipodi-0.dtd" xmlns:inkscape="http://www.inkscape.org/namespaces/inkscape" width="1350.0363mm" height="276.63037mm" viewBox="0 0 1350.0363 276.63037" version="1.1" id="svg8" inkscape:version="1.0.1 (3bc2e813f5, 2020-09-07)" sodipodi:docname="silhouette_layer1.svg">
  <style id="style10"/>
  <defs id="defs2"/>
  <sodipodi:namedview id="base" pagecolor="#ffffff" bordercolor="#666666" borderopacity="1.0" inkscape:pageopacity="0.0" inkscape:pageshadow="2" inkscape:zoom="0.34444857" inkscape:cx="2356.2563" inkscape:cy="238.16774" inkscape:document-units="mm" inkscape:current-layer="layer9" inkscape:document-rotation="0" showgrid="false" inkscape:window-width="1920" inkscape:window-height="1021" inkscape:window-x="-7" inkscape:window-y="-7" inkscape:window-maximized="1" showguides="false" inkscape:pagecheckerboard="true">
    <inkscape:grid type="xygrid" id="grid1180" originx="36.355836" originy="-402.41508"/>
  </sodipodi:namedview>
  <metadata id="metadata5">
    <rdf:RDF>
      <cc:Work rdf:about="">
        <dc:format>image/svg+xml</dc:format>
        <dc:type rdf:resource="http://purl.org/dc/dcmitype/StillImage"/>
        <dc:title/>
      </cc:Work>
    </rdf:RDF>
  </metadata>
  <g inkscape:groupmode="layer" id="layer11" inkscape:label="atlanta" transform="translate(36.355833,-402.41508)">
    <path d="m 1208.5614,427.68526 c -0.836,1.67188 -1.463,3.55273 -1.463,4.17968 0,0.62695 -0.2785,1.18423 -0.6965,1.18423 -0.418,0 -0.6966,2.22915 -0.6966,5.29422 0,5.78184 -0.7663,7.17505 -3.9708,7.24471 -1.4628,0 -1.6021,0.34832 -1.6021,3.41339 v 3.48307 l -3.6224,0.20897 -3.692,0.209 -0.209,6.06053 -0.209,6.13025 h -3.0651 -3.1348 v 3.76172 3.83137 l -2.9258,0.20898 -2.9953,0.20897 -0.2091,68.40723 c -0.07,44.86177 -0.4179,68.47691 -0.8359,68.47691 -0.418,0 -0.6966,5.29424 -0.6966,14.28052 0,17.06698 0,17.06698 -6.966,17.06698 -3.6921,0 -4.1797,-0.13941 -4.1797,-1.39322 0,-1.18425 -0.4877,-1.39324 -3.1348,-1.39324 h -3.1347 l -0.1395,-14.41985 -0.2089,-14.48951 -2.7865,-0.34831 c -2.6471,-0.34829 -2.7864,-0.48762 -2.9954,-2.99542 l -0.209,-2.57746 h -9.3346 -9.3346 l -0.2089,-10.24018 -0.2091,-10.17053 -2.7864,-0.9056 c -7.1054,-2.43814 -8.7076,-3.20441 -8.7076,-4.31899 0,-0.76626 -1.9506,-2.02017 -5.7819,-3.83136 -5.2942,-2.36848 -6.1999,-2.57746 -12.121,-2.57746 h -6.4785 v 4.17967 4.17967 h -4.8066 c -4.8067,0 -4.8764,0 -5.0853,1.88085 -0.209,1.81118 -0.4876,1.95051 -3.4831,2.15949 l -3.3437,0.20899 v 5.50322 5.50323 l -2.5774,0.41797 c -1.463,0.27864 -3.4831,0.62695 -4.5281,0.76627 l -1.9505,0.41797 v -34.4126 -34.34294 l -6.0605,-2.92576 c -3.4133,-1.60221 -8.7773,-4.38865 -12.0513,-6.06051 l -5.9213,-3.13475 -19.1567,0.97524 c -10.5189,0.55731 -19.2265,0.97525 -19.2962,1.04493 -0.1392,0 -0.209,12.67831 -0.209,28.21274 v 28.21276 l -8.7076,-0.41797 -8.70775,-0.48761 v 2.50779 2.57746 h -4.3189 c -2.4382,0.0696 -5.6426,0.48763 -7.1751,1.04492 -3.1347,1.11458 -4.4584,0.48763 -5.9212,-3.20441 -0.8359,-1.88086 -1.1146,-2.02018 -4.946,-2.02018 h -4.11 v 5.50323 c 0,4.94595 0.1392,5.5729 1.3933,5.99087 0.9056,0.27863 1.3932,1.04491 1.3932,2.15949 0,1.46287 -0.2787,1.67186 -2.7168,1.67186 -1.5325,0 -2.9954,0.3483 -3.2044,0.69661 -0.209,0.34831 -1.8809,0.69661 -3.6921,0.69661 -4.5976,0 -6.4088,0.62696 -6.4088,2.15949 0,0.83594 -0.4876,1.32357 -1.3933,1.32357 -1.3932,0 -1.3932,-0.48763 -1.3932,-39.28888 0,-43.60786 0.3484,-40.61242 -4.7368,-41.44837 -1.9506,-0.34831 -2.5776,-0.83593 -2.9258,-2.15949 -0.2787,-1.25391 -0.9753,-1.81118 -2.4382,-2.08983 l -2.0899,-0.34831 -0.2089,-15.53444 c -0.209,-21.10731 -1.4629,-20.41071 -1.6719,1.04492 l -0.209,16.50969 -4.52781,0.83595 c -2.50768,0.48762 -5.7817,1.25389 -7.31401,1.81118 l -2.78632,0.90559 0.07,34.7609 0.1394,34.69125 -2.57725,-0.41797 c -1.39321,-0.20899 -6.06014,-0.55729 -10.3093,-0.83594 l -7.87128,-0.48763 v 4.94595 5.0156 h -2.99532 -3.06492 l -0.76617,4.45831 c -0.48757,2.64712 -0.83584,11.91206 -0.83584,23.68479 0,12.81764 -0.209,19.15679 -0.69667,18.87816 -1.18404,-0.69662 -3.27382,0.27863 -3.69169,1.74153 -0.27867,1.04491 -0.97524,1.39322 -2.85602,1.39322 h -2.43798 l -0.20897,-5.01561 c -0.1394,-4.17966 -0.418,-5.08526 -1.39324,-5.29423 -1.04474,-0.20899 -1.25381,0.27863 -1.25381,3.27408 0,3.48303 -0.07,3.5527 -2.08968,3.5527 h -2.08958 v -21.24664 -21.24664 h -2.78635 -2.78635 v -42.07533 c 0,-40.12481 -0.07,-42.14497 -1.25384,-43.05056 -0.76624,-0.48764 -1.46281,-2.08984 -1.67168,-3.7617 -0.2787,-1.74154 -1.04494,-3.55273 -2.22908,-4.66731 -0.97514,-0.97524 -1.81111,-1.53255 -1.81111,-1.18424 0,0.41797 -0.27857,0.69662 -0.62697,0.69662 -0.34817,0 -1.32341,-2.08983 -2.15928,-4.59764 -1.18421,-3.41339 -1.46291,-5.5729 -1.18421,-8.01104 0.34827,-2.99541 0.27857,-3.41339 -0.83597,-3.41339 -0.69654,0 -2.08958,-0.62694 -3.13452,-1.46288 -1.60201,-1.25389 -1.81108,-1.25389 -1.81108,-0.20899 0,0.90562 -0.4179,1.04493 -2.15928,0.69661 -1.18424,-0.20897 -2.64695,-0.1394 -3.27402,0.20901 -0.69657,0.34828 -1.88071,0.34828 -2.85585,0 -1.25381,-0.48764 -1.53251,-0.97526 -1.25381,-2.15953 0.62684,-2.43812 -1.25384,-4.04033 -4.17946,-3.55269 -2.02011,0.34831 -2.36838,0.20897 -2.15948,-0.83595 0.27877,-1.74152 -1.25384,-2.08983 -1.74131,-0.34829 -0.2787,1.18424 -0.90554,1.39321 -4.17946,1.39321 -2.15938,0 -3.97039,-0.3483 -4.10976,-0.76626 -0.4179,-1.32357 -2.7863,0.13921 -2.43808,1.53255 0.2091,0.76625 0.07,1.32354 -0.34822,1.32354 -0.41797,0 -0.62701,2.43816 -0.48769,6.40883 l 0.27865,6.47848 -2.22916,-0.20897 c -2.64714,-0.27865 -3.83132,1.25389 -5.15483,6.33916 -0.41797,1.88085 -1.2539,3.5527 -1.74159,3.7617 -0.83594,0.27864 -0.97526,9.75256 -0.97526,56.00755 v 55.65924 h -2.43809 -2.4382 v 16.71866 16.71868 h -1.74148 c -1.11458,0 -1.74159,-0.41797 -1.74159,-1.04492 0,-0.55729 -0.48757,-1.04493 -1.04486,-1.04493 -0.55729,0 -1.04498,0.27864 -1.04498,0.62695 0,0.27865 -1.04486,1.74155 -2.36848,3.13476 -2.22916,2.29883 -2.71674,2.5078 -6.26952,2.5078 h -3.90092 v -12.539 -12.53901 h -2.78646 -2.78645 v -2.78644 -2.78644 h -5.29426 c -4.66736,0 -5.29426,-0.13922 -5.64251,-1.39322 -0.34836,-1.18424 -0.97537,-1.39322 -4.45833,-1.39322 h -4.11007 l -0.13932,-20.75902 -0.20893,-20.68936 -4.31905,-0.20898 -4.38872,-0.20899 v -31.20818 -31.20819 l -6.47844,-1.11458 c -8.011,-1.46287 -11.14582,-1.46287 -18.25116,-0.13922 -5.64262,1.11459 -7.31449,2.1595 -7.31449,4.6673 0,0.76628 -0.90555,1.88085 -2.08984,2.5078 l -2.08984,1.18426 v 18.2512 18.32087 h -1.74148 -1.74159 v 17.06698 17.06698 l -1.74148,0.0696 c -0.97526,0.0697 -2.15944,0.13933 -2.57741,0.20898 -0.69661,0.0697 -0.97537,4.31899 -1.2539,17.83324 -0.27865,10.72781 -0.62701,17.13664 -0.97526,16.16139 -0.83594,-2.15949 -5.29426,-2.29882 -5.29426,-0.13921 0,0.76626 -0.48769,1.60218 -1.04498,1.81118 -0.83593,0.34832 -1.04486,2.02017 -1.04486,8.7773 0,5.36393 -0.27865,8.15036 -0.69662,7.87172 -0.41796,-0.20898 -0.69661,-1.32356 -0.69661,-2.43814 0,-1.88086 -0.20904,-2.02018 -3.27414,-2.22914 -3.20442,-0.20901 -3.34374,-0.27868 -3.55267,-2.50782 -0.13943,-1.67188 -0.55729,-2.22915 -1.60215,-2.22915 -0.69673,0 -1.32362,-0.48765 -1.32362,-1.04492 0,-0.69663 -0.69662,-1.04494 -2.08984,-1.04494 -1.39323,0 -2.08984,-0.3483 -2.08984,-1.04489 0,-0.69663 -0.69662,-1.04493 -2.08984,-1.04493 h -2.08984 v -12.05138 c 0,-13.93222 -0.20893,-15.11646 -2.50781,-15.11646 -1.32351,0 -1.67187,-0.34831 -1.67187,-1.74153 0,-0.97525 -0.27865,-1.74153 -0.55729,-1.74153 -0.34825,0 -0.6269,-4.6673 -0.55729,-10.3795 0.0696,-6.13018 -0.20893,-10.72781 -0.6269,-11.14578 -0.34836,-0.34831 -9.05597,-1.04492 -19.29613,-1.46289 -14.97713,-0.69661 -19.01749,-0.69661 -20.75896,0 l -2.08996,0.83594 v 10.24019 10.24018 l -6.40872,-0.9056 c -6.26952,-0.90559 -31.83517,-0.76627 -35.94514,0.27865 l -1.53255,0.34831 v 25.00834 25.00835 h -2.85617 -2.78645 l 0.20904,-9.40427 0.20893,-9.40424 h -8.84693 c -7.31439,0 -8.91665,-0.20898 -8.91665,-1.04491 0,-0.55728 -0.97526,-1.18423 -2.36849,-1.4629 -1.95051,-0.34828 -2.43809,-0.76626 -2.64713,-2.2988 -0.13921,-1.04492 -0.62689,-1.81118 -1.2539,-1.81118 -0.83594,0 -1.11458,-1.4629 -1.25391,-8.22003 -0.13921,-7.45374 0.13944,-10.37951 1.60227,-13.93223 0.34825,-0.83594 0.13944,-1.18423 -0.69661,-1.18423 -0.83594,0 -1.11458,-0.41797 -0.83594,-1.39323 0.41797,-1.74153 0,-1.74153 -1.81119,-0.20898 -1.32362,1.18424 -1.39323,1.18424 -0.97526,0 0.69661,-1.88085 -0.20904,-5.36391 -1.46294,-5.36391 -0.97526,0 -0.97526,-2.78644 0,-10.79747 0.13943,-0.97526 -0.20893,-1.39322 -1.18419,-1.39322 -1.25391,0 -1.39323,0.55728 -1.60216,5.92119 -0.13943,4.17967 -0.55729,6.2695 -1.32362,7.10543 -0.627,0.69662 -0.97526,1.95052 -0.76622,2.99543 0.41797,2.08984 0.0696,2.1595 -1.74158,0.48763 -1.32363,-1.11458 -1.32363,-1.11458 -0.90555,0.34831 0.41797,1.32356 0.27865,1.60221 -0.97525,1.60221 -1.11459,0 -1.39323,0.34829 -1.11459,1.25389 0.48758,1.60221 1.8112,15.74341 1.8112,19.43546 0,2.85611 -0.0696,2.99544 -2.08984,2.99544 h -2.08984 v 9.96154 10.0312 l -2.78645,0.0696 c -1.53255,0.0696 -2.9955,0.13922 -3.27414,0.20898 -1.53255,0.27864 -2.43809,-0.20898 -2.08984,-1.04493 0.48768,-1.25389 -1.11458,-2.64711 -2.43809,-2.15949 -0.6269,0.27864 -1.25391,-0.0697 -1.53255,-0.83592 -0.41797,-0.97526 -0.6269,-1.04493 -1.11458,-0.27865 -0.34825,0.62695 -1.8112,0.97526 -3.692,0.97526 h -3.13481 l 0.0696,4.24933 c 0.0696,3.69203 -0.0696,4.24933 -1.25379,4.52798 -2.15956,0.3483 -2.92577,1.32354 -3.41346,3.90101 -0.27864,1.32356 -0.76622,2.43813 -1.11458,2.43813 -0.41797,-1.5e-4 -0.69661,4.3885 -0.69661,10.79733 v 10.79747 h 396.36674 396.37099 v -14.62884 c 0,-12.539 -0.1394,-14.62883 -1.0449,-14.62883 -0.836,0 -1.0449,-0.97526 -1.0449,-4.52797 v -4.52798 h -5.9212 -5.8515 l -0.2091,-8.15035 -0.2089,-8.22002 -2.9258,-0.20898 -2.9955,-0.20899 v -7.24476 -7.17509 l -4.5279,-1.53254 c -2.5078,-0.83593 -4.5279,-1.88085 -4.5279,-2.29882 0,-0.48763 -1.2539,-1.39322 -2.7865,-2.02017 l -2.7865,-1.18424 v -24.52072 -24.52072 l -14.3502,0.48763 c -7.9413,0.20898 -16.231,0.62695 -18.4602,0.9056 l -4.1099,0.41796 v -37.68662 c 0,-22.08258 -0.2787,-38.38328 -0.627,-39.42819 -0.4876,-1.18426 -1.3236,-1.81121 -2.6472,-1.95052 -1.8808,-0.209 -1.9504,-0.34831 -1.7415,-3.48305 0.1393,-2.71679 0,-3.27409 -1.2539,-3.69205 -0.7663,-0.209 -2.2291,-1.81122 -3.2044,-3.55274 -1.1146,-1.95053 -2.2989,-3.06511 -3.1348,-3.06511 -1.1145,0 -1.3235,-0.48764 -1.3235,-2.99548 0,-2.15951 -0.418,-3.41342 -1.3932,-4.31901 -0.7662,-0.69661 -1.3933,-2.02016 -1.3933,-2.92577 0,-1.32354 -0.3482,-1.67185 -1.5325,-1.46288 -1.3932,0.20897 -1.6022,-0.13941 -1.8112,-2.78644 l -0.2089,-3.06508 -2.4382,0.41795 c -1.3235,0.27866 -2.3684,0.209 -2.3684,-0.0697 0,-0.27863 -0.4877,-3.41337 -0.9754,-6.89642 -1.0448,-6.68742 -1.6717,-8.42896 -4.319,-11.56371 l -1.5324,-1.9505 z" id="atlanta_path" style="display:inline;stroke-width:0.069661"/>
  </g>
  <g inkscape:groupmode="layer" id="layer10" inkscape:label="new_york" transform="translate(36.355833,-402.41508)">
    <path d="m 264.94125,515.60631 -9.1269,1.46481 -0.16903,39.15554 -0.1126,39.15554 -1.97186,0.16902 -1.97185,0.16902 0.16901,4.73245 0.16902,4.73249 -3.26765,-0.33804 c -1.80285,-0.16901 -3.32401,-0.56339 -3.43668,-0.84509 -0.28168,-0.61972 -2.92963,-0.56337 -2.92963,0.11276 0,0.28169 -0.61971,0.56338 -1.35212,0.56338 -1.46482,0 -1.63383,0.45071 -2.3099,5.18319 -0.39437,2.59158 -0.45072,2.70426 -2.30989,2.70426 h -1.91554 v -38.59222 -38.59215 h -11.21142 -11.2678 l -0.169,-2.42258 -0.16904,-2.36623 -9.1269,-0.16902 c -8.73252,-0.11268 -9.18323,-0.22536 -9.18323,-1.23946 0,-0.84508 -0.39438,-1.12677 -1.40848,-1.12677 -1.0141,0 -1.40846,0.28169 -1.40846,1.12677 0,0.90142 -0.39439,1.12679 -1.97186,1.12679 -1.91553,0 -1.97188,0.0563 -1.97188,2.25355 v 2.25355 h -10.98607 -10.9861 l -0.0564,47.15567 c -0.0564,25.97224 -0.16901,46.76131 -0.33803,46.19791 -0.39438,-1.5775 -2.42258,-1.23945 -2.42258,0.45071 0,1.18311 -0.28169,1.40849 -1.69017,1.40849 -1.52114,0 -1.69017,-0.16904 -1.69017,-1.69019 0,-1.29579 -0.22535,-1.69016 -1.12677,-1.69016 -0.7324,0 -1.12677,0.39437 -1.12677,1.12677 0,0.73241 -0.39438,1.12678 -1.12679,1.12678 -1.1268,0 -1.1268,-0.39437 -1.1268,-18.59184 0,-16.05658 -0.11258,-18.64817 -0.84507,-18.92987 -0.50706,-0.22535 -0.8451,-1.07044 -0.8451,-1.97186 0,-1.2958 -0.33804,-1.80284 -1.52115,-2.25357 -2.19723,-0.84507 -17.57786,-1.57748 -34.08536,-1.63381 h -13.97212 v 9.5776 9.57763 h -1.97194 -1.971877 v 9.29592 c 0,8.90155 -0.05636,9.29592 -1.126788,9.29592 -1.014108,0 -1.126796,0.39437 -1.126796,4.22541 0,3.83104 -0.112743,4.22543 -1.126792,4.22543 -1.070423,0 -1.126757,-0.39439 -1.126757,-5.85925 0,-4.11275 -0.225361,-6.02827 -0.676062,-6.36631 -0.394385,-0.22535 -2.985978,-0.39436 -5.746578,-0.33802 -4.225421,0.1126 -5.295858,-0.0564 -6.929675,-1.0141 -1.014102,-0.61973 -1.859197,-1.40848 -1.859197,-1.69018 0,-0.2817 -1.239453,-0.50704 -2.816945,-0.50704 h -2.816945 l -0.05639,-2.98596 c 0,-1.57749 -0.225361,-3.43668 -0.507056,-4.05641 -0.507047,-1.12679 -0.507047,-1.0141 -0.788733,4.50711 -0.05639,0.84509 -0.507045,1.18313 -2.028194,1.2958 -3.549352,0.2817 -4.394449,0.61973 -4.732489,2.08454 -0.22535,0.84509 -1.239452,1.97186 -2.42256,2.64792 l -1.97186,1.18313 0.169006,6.53532 c 0.0564,3.60568 0.112591,8.2818 0.0564,10.4227 -0.112749,4.11271 -0.281695,4.28174 -3.605697,2.87327 -0.788741,-0.28168 -1.014092,-0.1126 -1.014092,0.78875 0,1.07044 -0.33803,1.1831 -2.816955,1.1831 -2.422569,0 -2.816945,-0.16901 -2.816945,-1.12677 0,-0.61972 -0.225351,-1.12676 -0.563381,-1.12676 -0.338031,0 -0.563391,5.46486 -0.563391,15.21149 v 15.2115 h -6.760695 -6.760663 v 1.63384 1.69016 l -3.098651,-0.33805 c -2.028193,-0.22535 -3.380335,-0.11257 -3.943716,0.39439 -0.67607,0.56338 -1.014101,0.50704 -1.690172,-0.22537 -1.183117,-1.18311 -3.887381,-1.12678 -4.845147,0.0564 -0.450711,0.50704 -1.802833,1.63383 -2.98596,2.53524 -1.746507,1.23946 -2.816954,1.5775 -5.070506,1.5775 -2.985955,-0.0564 -4.000045,-0.50705 -5.5212008,-2.76061 l -0.9577566,-1.35213 -1.6338342,1.7465 c -1.0704261,1.12679 -1.8028408,1.57749 -2.1972059,1.18313 -0.3380408,-0.33804 -1.2394506,-0.22536 -2.5915916,0.33802 -2.36622044,0.95777 -4.7324623,1.12678 -5.0141563,0.22535 -0.112749,-0.39436 -0.67606,-0.39436 -1.746497,0 -0.90144,0.33804 -6.6480006,0.61974 -13.5213506,0.67608 -6.535309,0 -14.47907,0.22535 -17.577681,0.45071 -3.098627,0.22536 131.438624,0.50704 299.047393,0.50704 l 304.62448,0.1126 v -36.90199 -36.90198 h -2.81695 c -1.52116,0 -2.81693,0.22537 -2.81693,0.50705 0,0.2817 -4.45079,0.67608 -9.91565,0.90143 -9.29593,0.39437 -9.97198,0.50705 -10.25369,1.52115 -0.28167,1.07044 -0.56339,1.12676 -5.12684,0.78874 -7.88746,-0.61973 -7.38041,-0.22534 -7.38041,-5.97192 v -4.95782 l -3.49298,-0.39438 c -1.97187,-0.16901 -4.90148,-0.56339 -6.59165,-0.90142 -3.49302,-0.56339 -11.09878,-0.67606 -14.25378,-0.16901 l -2.14084,0.39436 v 8.28182 8.33817 l -4.3381,0.39437 c -6.14094,0.50705 -5.9156,0.33804 -5.46488,3.60569 0.50706,3.88737 0.22536,4.3381 -2.4226,4.11275 l -2.25353,-0.22538 -0.39437,-11.32411 c -0.84507,-24.73277 -2.64793,-42.64855 -5.57755,-55.6065 -0.61973,-2.64794 -0.90145,-3.09864 -1.91556,-2.92963 -1.07042,0.16902 -1.23943,-0.16901 -1.57746,-3.7747 -0.22534,-2.42258 -0.67607,-4.05641 -1.12679,-4.22542 -0.78871,-0.28169 -2.14086,-5.57756 -3.38034,-13.40866 l -0.78872,-4.67613 0.33805,6.59165 c 0.28165,5.63389 0.169,6.70433 -0.61976,7.49308 -0.50705,0.50704 -0.90141,1.52115 -0.90141,2.25355 0,0.73241 -0.33803,1.57749 -0.78876,1.80284 -0.56337,0.2817 -0.90141,1.69017 -1.01409,4.22543 -0.169,3.66203 -0.22534,3.83105 -1.57748,3.83105 -1.23948,0 -1.52115,0.39437 -2.19722,2.64792 -1.12679,4.11274 -1.69017,11.88751 -2.08456,28.45114 l -0.33805,15.09883 h -3.88738 -3.83101 l -0.67607,-1.97186 c -0.73244,-2.0282 -0.84507,-2.0282 -8.1128,-2.64792 -1.46484,-0.16903 -1.69017,-0.45071 -2.19722,-2.70427 l -0.50704,-2.53526 -0.67607,2.19722 c -0.78876,2.81694 -2.0282,3.6057 -5.91559,3.83104 l -3.09863,0.16903 -0.28171,-20.56371 -0.28169,-20.56369 -5.91559,-0.67607 c -3.26765,-0.39438 -6.47897,-0.67607 -7.15504,-0.5634 l -1.29581,0.22537 v -11.15511 c 0,-6.19728 -0.16901,-11.21144 -0.39434,-11.21144 -1.52116,-0.0563 -22.19752,-2.3099 -26.36663,-2.87329 l -5.07049,-0.61972 -14.08474,3.43666 c -7.71844,1.91553 -16.33829,3.8874 -19.15524,4.3381 -2.7606,0.45072 -6.92966,1.35214 -9.12689,2.02821 l -4.11274,1.18312 v 21.23976 21.29612 l -4.0564,0.33802 c -2.25355,0.22535 -5.29585,0.50705 -6.76068,0.67607 l -2.70426,0.33803 v -9.07056 -9.07056 h -4.61979 c -2.59159,0 -6.76067,-0.16901 -9.29592,-0.39438 l -4.67613,-0.33804 v -2.36623 -2.42257 l -7.04237,-0.39436 -7.04235,-0.39438 -0.11275,-15.26784 -0.16901,-15.26786 -2.08454,-0.50705 -2.14088,-0.50705 v -3.60568 c 0,-2.42258 -0.22535,-3.71837 -0.67608,-3.83105 -8.61985,-2.14088 -15.49318,-3.71836 -15.94391,-3.66203 -0.28169,0 -4.67612,0.73241 -9.74662,1.57749 z" id="new_york_path" style="display:inline;stroke-width:0.0563388"/>
  </g>
  <g inkscape:groupmode="layer" id="layer9" inkscape:label="liberty" transform="translate(36.355833,-402.41508)">
    <path d="m 522.89155,410.4877 c -0.88423,1.66319 -1.20004,1.89478 -2.88429,2.12635 -1.0737,0.14737 -1.70527,0.37897 -2.379,0.86319 -0.67371,0.46316 -1.01054,0.58948 -1.1579,0.44211 -0.12625,-0.12616 -0.44213,-0.2316 -0.71581,-0.2316 -0.33684,0 -0.48421,-0.12617 -0.48421,-0.42105 0,-0.58947 -0.35791,-0.52633 -1.47374,0.21054 -0.52633,0.33684 -1.01055,0.63159 -1.09475,0.63159 -0.0842,0 -0.10508,-0.58949 -0.0212,-1.32633 0.0842,-1.01056 0.0423,-1.49479 -0.23158,-2.00007 -0.42106,-0.80002 -0.73685,-0.84211 -1.38951,-0.14736 -0.25261,0.27368 -0.94739,0.6737 -1.49478,0.84213 -0.7158,0.25264 -1.22107,0.61054 -1.70529,1.20003 -0.44211,0.56842 -1.09475,1.05266 -1.93689,1.43161 -2.61059,1.15792 -3.74745,3.38954 -2.98952,5.85276 0.39999,1.26317 2.04215,4.12641 2.54742,4.42115 0.23157,0.10511 0.25262,0.33686 0.14743,0.77896 -0.16833,0.61056 -0.23158,0.63159 -1.4316,0.69476 -1.49477,0.0632 -1.7895,0.14738 -1.66319,0.50527 0.14744,0.4 -0.27369,0.96844 -0.46317,0.67372 -0.10507,-0.14738 -0.50527,-0.29476 -0.90529,-0.31582 -0.69475,-0.0842 -0.73685,-0.0423 -0.80002,0.58948 -0.0423,0.50529 -0.16834,0.69477 -0.46318,0.69477 -0.21054,0 -0.42104,-0.0632 -0.48421,-0.16834 -0.0423,-0.0843 -0.0423,-0.0423 -0.0209,0.10512 0.10507,0.4 -0.25263,0.50526 -0.86316,0.2737 -0.50529,-0.18955 -0.54738,-0.16833 -0.42105,0.14738 0.37893,0.92633 0.35787,1.11579 -0.10508,1.28423 l -0.4842,0.18953 0.42104,0.40001 c 0.2316,0.21052 0.58952,0.7579 0.80002,1.22108 l 0.40001,0.82107 -0.90529,1.74741 c -0.61053,1.20004 -0.86317,1.91582 -0.80001,2.2316 0.0842,0.2737 0.56843,1.07371 1.09479,1.78953 1.05265,1.4527 2.08425,2.10533 4.2948,2.71584 1.24214,0.35792 1.28425,0.37898 1.28425,1.07372 0,0.50529 0.21055,0.92635 0.73687,1.51582 0.65262,0.7158 0.73683,0.92634 0.73683,2.00004 0,0.92635 -0.0632,1.17897 -0.33684,1.17897 -0.52632,0 -1.55791,1.17901 -1.55791,1.78954 0,0.54738 0.71578,1.43162 1.57898,1.9158 0.37896,0.21056 0.33684,0.2737 -0.44214,0.48424 -0.48421,0.12625 -0.94738,0.37897 -1.01053,0.56845 -0.35791,0.94738 0.1261,2.06319 1.09474,2.42111 l 0.5474,0.21052 -0.67372,0.40001 c -0.37895,0.23158 -0.67368,0.58948 -0.67368,0.77896 0,0.58949 0.75791,1.6632 1.43161,2.06321 0.5474,0.33684 0.6316,0.50526 0.75792,1.76845 0.18955,2.12637 0.14744,4.82117 -0.0841,4.96854 -0.12625,0.0632 -0.21053,0.40001 -0.21053,0.71579 0,0.31582 -0.0842,0.65266 -0.18955,0.77898 -0.50527,0.54736 -0.42107,1.30529 0.23157,2.27372 0.48423,0.73685 0.6737,1.34739 0.77897,2.35795 0.0842,0.73687 0.25263,1.45266 0.39999,1.60003 0.14744,0.14744 0.25265,0.48423 0.25265,0.73686 0,0.27369 0.14744,0.77899 0.29474,1.09475 0.33686,0.65265 1.68426,1.91584 2.04216,1.91584 0.8421,0 2.29481,-1.62109 2.29481,-2.54744 0,-0.29471 0.18952,-0.8842 0.42104,-1.34738 0.2316,-0.46317 0.42107,-1.09477 0.42107,-1.43163 0,-0.33684 0.16834,-0.86317 0.40001,-1.15789 0.21051,-0.3158 0.42105,-0.7158 0.4842,-0.88423 0.16834,-0.46318 0.29475,0.2737 0.69476,3.57902 0.35791,2.94743 1.87373,11.1371 3.13692,17.0951 0.77897,3.55798 1.68423,6.50544 2.84215,9.22125 0.37894,0.86318 0.94739,2.31585 1.28423,3.20008 0.58951,1.62109 1.11583,2.5264 2.02114,3.53693 0.25261,0.29472 0.75787,1.43159 1.13684,2.52635 0.37896,1.09478 1.32634,3.76851 2.12638,5.937 l 1.47369,3.95798 -1.17896,3.45271 c -1.68424,5.01061 -2.00006,6.5054 -2.00006,9.43177 0,1.3474 0.0842,2.69483 0.21056,2.98956 0.10507,0.29474 0.61052,0.92635 1.09475,1.41056 l 0.90528,0.88424 -0.0423,2.23166 c -0.0209,1.49476 0.0632,2.27374 0.21054,2.37899 0.37893,0.23161 1.89478,0.18956 2.63163,-0.0632 1.13685,-0.39999 1.62109,0.18954 2.6106,2.98956 0.54738,1.53689 0.82103,2.65269 0.77895,3.13695 -0.0423,0.4 -0.0842,1.76846 -0.0842,3.05271 0,2.06319 0.0632,2.44215 0.58948,3.55799 0.42106,0.90528 0.56843,1.55795 0.56843,2.50531 0,1.22111 -0.0842,1.41059 -1.47373,3.74749 -1.89476,3.15796 -2.1895,3.8317 -3.05264,7.17913 -0.40006,1.53688 -1.05269,4.08435 -1.47376,5.64228 -1.09475,4.14745 -1.38948,7.57909 -1.32635,15.36875 0.0209,5.45275 -0.0212,6.71595 -0.33684,8.42124 -0.29474,1.49476 -0.42108,3.45272 -0.48422,7.83176 -0.10507,5.09485 -0.0632,6.29486 0.33686,9.57916 0.77894,6.33697 1.30527,9.76864 1.83159,11.74763 0.29476,1.03158 0.88425,3.5369 1.34741,5.51591 0.80003,3.45269 0.84213,3.81057 0.84213,7.11594 0,1.93687 -0.14744,5.83172 -0.33686,8.69494 -0.21051,3.32636 -0.29473,6.71592 -0.23157,9.41072 l 0.10508,4.21063 1.93686,5.78957 c 1.05266,3.17903 2.25269,6.4212 2.65272,7.20019 0.69474,1.36844 0.7158,1.49476 0.7158,3.83165 v 2.44215 h 35.91664 35.91658 l -0.1264,-0.88421 c -0.0632,-0.50527 -0.21051,-2.04217 -0.35786,-3.43167 l -0.2316,-2.52637 0.65264,-0.56842 0.65266,-0.58949 -0.29476,-2.69482 c -0.16833,-1.4737 -0.42108,-4.33692 -0.54738,-6.35802 -0.12609,-2.02109 -0.3579,-5.43169 -0.52634,-7.5791 -0.29471,-4.0422 -0.58946,-8.96864 -0.94736,-16.52671 -0.12625,-2.44213 -0.35793,-6.84224 -0.52636,-9.78967 -0.16833,-2.94743 -0.33684,-6.52646 -0.39998,-7.95808 l -0.0841,-2.56847 h 1.17896 c 1.13686,0 3.30534,-0.54739 4.31589,-1.07369 2.27375,-1.22109 4.90537,-4.92643 5.51592,-7.7686 0.0842,-0.40005 0.46318,-1.17897 0.86316,-1.70532 1.49479,-2.06321 1.91584,-3.68427 2.14743,-8.40019 0.14743,-2.92638 0.21052,-3.34741 0.6316,-3.95797 0.6737,-0.92633 1.03158,-2.96849 1.20002,-6.80016 0.1261,-3.17902 0.1261,-3.32637 -0.42108,-4.94746 -0.31579,-0.90529 -0.88422,-2.27376 -1.30529,-3.03165 -1.70527,-3.11586 -1.53687,-2.4632 -1.87371,-7.57911 -0.10507,-1.51583 -0.25264,-2.21057 -0.61055,-2.84217 -0.25263,-0.46318 -0.54735,-1.13689 -0.61053,-1.51583 -0.21051,-0.94741 -0.90528,-1.74745 -1.51583,-1.74745 -0.37896,0 -0.50526,-0.10507 -0.50526,-0.42108 0,-0.25262 -0.2316,-0.65264 -0.48423,-0.90526 -0.2737,-0.25264 -1.01053,-1.45267 -1.64214,-2.67377 -0.63158,-1.22106 -2.16848,-3.87378 -3.41058,-5.8949 l -2.23165,-3.68427 0.48424,-2.42116 c 0.27368,-1.32636 0.61052,-2.84216 0.73684,-3.36848 0.12609,-0.56845 0.12609,-1.03163 0.0209,-1.17901 -0.12625,-0.12625 -0.88421,-0.3579 -1.72635,-0.50528 -0.84211,-0.14744 -1.64213,-0.31579 -1.78951,-0.3579 -0.14744,-0.0632 -0.54739,0.21053 -0.88423,0.58949 -0.71578,0.75792 -0.73685,0.73687 -1.05265,-0.90527 -0.23159,-1.30531 -1.72635,-3.66327 -3.74746,-5.9581 -0.90528,-1.01052 -2.00005,-2.33688 -2.4211,-2.92637 -0.42107,-0.61054 -1.13687,-1.36846 -1.57898,-1.7053 -0.44212,-0.33687 -1.51582,-1.34739 -2.37901,-2.23166 -0.9895,-1.03161 -1.81057,-1.68425 -2.21056,-1.78951 -0.82108,-0.18954 -1.72636,-0.6737 -2.61058,-1.43162 -1.28425,-1.05267 -3.45274,-1.7474 -4.10539,-1.28423 -0.18953,0.14744 -0.54737,0.23156 -0.75787,0.16833 -0.42108,-0.10507 -2.73692,-2.82111 -2.73692,-3.20008 0,-0.1261 0.35791,-0.4 0.82108,-0.63159 1.11582,-0.56843 2.08426,-1.43163 2.4632,-2.1474 0.2737,-0.56844 0.2737,-0.84213 -0.0423,-2.67375 -0.25267,-1.51582 -0.29477,-2.21056 -0.12641,-2.67374 0.12641,-0.33684 0.33685,-1.17897 0.46317,-1.87372 0.61055,-3.03165 -0.8421,-6.84228 -2.84216,-7.49494 -0.84213,-0.27365 -0.84213,-0.25261 -0.42104,-2.21054 0.63156,-2.98955 0.27369,-5.89488 -1.09478,-8.80017 -0.44211,-0.92635 -0.69475,-1.72637 -0.5895,-1.76849 0.42107,-0.12625 7.78968,-4.10536 7.97914,-4.29483 0.10507,-0.10507 0.14744,-0.23158 0.0842,-0.29472 -0.10507,-0.12624 -3.49483,0.50524 -8.02126,1.49476 l -2.46318,0.54737 -0.73685,-0.54737 c -0.80002,-0.61055 -4.16851,-2.23164 -4.65274,-2.23164 -0.50528,0 -0.33686,-0.52632 1.15792,-3.8527 1.66317,-3.6843 2.54743,-5.74749 2.54743,-5.97911 0,-0.27369 -1.85269,1.6211 -4.88431,5.0317 -1.64218,1.83165 -3.03167,3.32641 -3.11588,3.32641 -0.0842,0 -1.11579,-0.50527 -2.31582,-1.11583 l -2.18953,-1.09477 -0.46317,-1.4737 c -1.76846,-5.60011 -4.14748,-12.86343 -4.21063,-12.9266 -0.0423,-0.0423 -0.1261,-0.0423 -0.18953,0 -0.10508,0.12625 0.35787,5.62117 0.8421,10.16864 0.16833,1.60003 0.31581,2.98953 0.31581,3.09481 0,0.10507 -0.8632,0.18954 -1.91584,0.18954 h -1.91582 l -3.9159,-3.74744 c -2.16846,-2.06321 -5.22116,-4.92645 -6.7791,-6.35808 -1.55791,-1.43158 -3.24216,-2.98952 -3.72639,-3.45268 -0.50528,-0.46315 -0.90528,-0.73686 -0.90528,-0.58949 0,0.35791 5.7896,7.4949 10.46338,12.90554 0.96845,1.11582 1.7474,2.10531 1.7474,2.16848 0,0.0842 -0.31578,0.46318 -0.67369,0.82108 -0.37896,0.37895 -0.88424,0.94739 -1.11582,1.28424 l -0.44212,0.61053 -3.13689,-1.11583 c -1.74741,-0.61053 -5.57908,-1.89477 -8.52652,-2.86321 -3.74745,-1.24213 -5.47378,-1.91583 -5.70538,-2.21058 -0.65265,-0.86317 -3.95797,-7.51593 -5.32643,-10.73709 -0.7579,-1.81055 -1.64215,-4.12638 -1.93688,-5.15801 -1.07371,-3.68427 -4.16851,-11.81076 -6.23171,-16.35824 -0.31582,-0.7158 -0.86317,-1.34739 -1.81058,-2.1053 -1.26319,-1.03164 -1.32636,-1.11582 -1.20004,-1.81058 0.0842,-0.40001 0.42108,-0.98949 0.75793,-1.30529 0.46317,-0.44212 0.61053,-0.75792 0.61053,-1.38951 v -0.82106 l 1.53688,-0.3579 c 1.72635,-0.42106 3.60007,-1.3895 3.958,-2.10532 0.14744,-0.25264 0.48421,-0.73685 0.73684,-1.05266 0.67369,-0.80002 0.6316,-1.57899 -0.10507,-3.05268 -0.88421,-1.76847 -0.9895,-2.46321 -0.46318,-2.92639 0.25267,-0.18955 0.44215,-0.56843 0.44215,-0.82107 0,-0.25264 0.14743,-0.56842 0.31578,-0.7158 0.52632,-0.4421 0.39999,-0.96846 -0.25264,-0.9474 -0.54738,0 -0.58948,-0.0632 -0.52632,-0.75789 0.0632,-0.86319 -0.33687,-1.17899 -0.98949,-0.77898 -0.52633,0.3158 -1.49478,0.0423 -1.49478,-0.42105 0,-0.56846 -0.42105,-0.88424 -1.20004,-0.88424 -0.54735,0 -0.69474,-0.0842 -0.69474,-0.42106 0,-0.33685 -0.14744,-0.42107 -0.6316,-0.42107 -0.50529,0 -0.69474,0.12608 -0.84213,0.54741 -0.33684,0.8842 -0.92632,0.58946 -1.01053,-0.52633 -0.0843,-1.05268 0.27366,-1.51586 2.4632,-3.30535 0.46317,-0.40002 1.07371,-1.34741 1.81058,-2.92639 1.1579,-2.37902 2.02109,-3.47377 3.49482,-4.46326 0.6316,-0.4 0.86317,-0.75792 1.03158,-1.41056 0.10507,-0.46316 0.31582,-1.15792 0.42109,-1.51583 0.29475,-0.88422 0.2737,-1.47371 -0.10508,-2.18951 -0.18953,-0.35792 -0.35789,-0.6316 -0.40001,-0.6316 -0.0423,0 -0.3579,0.54738 -0.71581,1.22108 z m 16.94774,75.64376 7.43174,3.66325 v 1.05264 c 0,0.58949 0.14744,1.62109 0.3158,2.31586 0.18956,0.67368 0.25264,1.30529 0.16834,1.38948 -0.0842,0.0842 -1.34739,0.6316 -2.80006,1.20004 -1.45265,0.58948 -3.43165,1.38948 -4.37904,1.81057 -0.96846,0.42105 -1.87374,0.75787 -2.02112,0.75787 -0.16833,0 -0.42104,-0.82104 -0.69474,-2.18947 -0.50528,-2.44217 -1.97899,-6.12647 -4.29482,-10.65289 -1.41057,-2.75796 -1.6211,-3.28428 -1.28426,-3.11586 0.0843,0.0423 3.49481,1.74743 7.55807,3.76851 z m 7.26332,13.81085 c 0.0632,1.36842 0.21054,2.29477 0.44213,2.73691 l 0.35788,0.65265 -1.78952,1.2842 -1.76845,1.26319 -0.44209,-0.54736 c -0.2316,-0.29476 -0.42107,-0.65265 -0.42107,-0.77899 0,-0.3158 -1.09475,-1.38951 -1.41057,-1.38951 -0.12609,0 -0.3579,-0.21051 -0.54735,-0.48418 -0.56845,-0.88425 -1.47373,-1.62113 -1.93691,-1.62113 -0.3579,0 -0.56845,-0.21051 -0.80001,-0.80001 -0.18954,-0.48422 -0.25264,-0.86316 -0.12641,-1.01053 0.10508,-0.12639 0.84212,-0.29476 1.62108,-0.37897 0.77899,-0.0843 2.46323,-0.3158 3.72641,-0.52632 1.28424,-0.21054 2.46322,-0.40001 2.6527,-0.42105 0.29474,-0.0212 0.35791,0.29473 0.44211,2.0211 z m 3.30535,6.52644 c 0.18952,0.80002 0.21052,1.28424 0.0423,1.8948 -0.35788,1.2421 -0.29473,1.51582 0.44211,1.9579 0.61053,0.35794 0.71581,0.5895 1.15791,2.46323 0.2737,1.13687 0.56846,2.65269 0.69479,3.38956 0.27365,1.76844 0.46317,2.0632 1.68422,2.67374 0.73687,0.37894 1.05266,0.65265 1.05266,0.94738 0,0.58951 -0.37896,0.52632 -2.12638,-0.31579 -0.86317,-0.40003 -1.68424,-0.73687 -1.8737,-0.73687 -0.16834,0 -0.75793,-0.31577 -1.30531,-0.69474 -1.05265,-0.71579 -1.87372,-2.00003 -2.40004,-3.7685 -0.16834,-0.54737 -0.37896,-1.05269 -0.48422,-1.11582 -0.10507,-0.0632 -0.14744,-0.48423 -0.0842,-0.94737 0.10507,-0.80005 0.0632,-0.88425 -1.11583,-2.00006 -1.03158,-0.98949 -1.22106,-1.30528 -1.26319,-1.95792 0,-0.4211 -0.0632,-0.90531 -0.10507,-1.07373 -0.0632,-0.18955 0.69477,-0.54739 2.54744,-1.17897 1.45267,-0.48421 2.6948,-0.84213 2.75795,-0.75792 0.0632,0.0632 0.23161,0.61055 0.37894,1.22108 z" id="liberty_path" style="display:inline;fill:#000000;stroke:none;stroke-width:0.0210531"/>
  </g>
  <style type="text/css" id="style912">
	.st0{fill:#808080;}
	.st1{fill:#222222;}
	.st2{fill:#B14225;}
	.st3{fill:none;stroke:#B14225;stroke-width:3;stroke-linecap:round;stroke-linejoin:round;stroke-miterlimit:10;}
	.st4{fill:#E37325;}
	.st5{fill:none;stroke:#E37325;stroke-width:3;stroke-linecap:round;stroke-linejoin:round;stroke-miterlimit:10;}
	.st6{fill:#FAA436;}
	.st7{fill:none;stroke:#FAA436;stroke-width:3;stroke-linecap:round;stroke-linejoin:round;stroke-miterlimit:10;}
</style>
</svg>