<?xml version="1.0" encoding="UTF-8" standalone="no"?>
<svg xmlns:dc="http://purl.org/dc/elements/1.1/" xmlns:cc="http://creativecommons.org/ns#" xmlns:rdf="http://www.w3.org/1999/02/22-rdf-syntax-ns#" xmlns:svg="http://www.w3.org/2000/svg" xmlns="http://www.w3.org/2000/svg" xmlns:sodipodi="http://sodipodi.sourceforge.net/DTD/sodipodi-0.dtd" xmlns:inkscape="http://www.inkscape.org/namespaces/inkscape" width="1350.0363mm" height="276.63037mm" viewBox="0 0 1350.0363 276.63037" version="1.1" id="svg8" inkscape:version="1.0.1 (3bc2e813f5, 2020-09-07)" sodipodi:docname="silhouette_layer2.svg">
  <style id="style10"/>
  <defs id="defs2"/>
  <sodipodi:namedview id="base" pagecolor="#ffffff" bordercolor="#666666" borderopacity="1.0" inkscape:pageopacity="0.0" inkscape:pageshadow="2" inkscape:zoom="0.4" inkscape:cx="1876.7981" inkscape:cy="515.03606" inkscape:document-units="mm" inkscape:current-layer="layer2" inkscape:document-rotation="0" showgrid="false" inkscape:window-width="1920" inkscape:window-height="1021" inkscape:window-x="-7" inkscape:window-y="-7" inkscape:window-maximized="1" showguides="false" inkscape:pagecheckerboard="true">
    <inkscape:grid type="xygrid" id="grid1180" originx="36.355836" originy="-402.41508"/>
  </sodipodi:namedview>
  <metadata id="metadata5">
    <rdf:RDF>
      <cc:Work rdf:about="">
        <dc:format>image/svg+xml</dc:format>
        <dc:type rdf:resource="http://purl.org/dc/dcmitype/StillImage"/>
        <dc:title/>
      </cc:Work>
    </rdf:RDF>
  </metadata>
  <g inkscape:groupmode="layer" id="layer2" inkscape:label="chicago" style="display:inline" transform="translate(36.355833,-402.41508)">
    <path d="m 1016.275,544.13872 c -0.4231,-0.059 -0.9066,-0.27729 -1.2601,-0.15067 -2.2226,0.79721 -2.9061,-1.17124 -2.7943,-2.19186 0.1904,-1.7378 -0.1898,-3.44689 0.1021,-5.13429 0.1019,-0.5883 0.052,-1.14791 -0.4508,-1.18132 -2.2598,-0.14962 -4.4712,-1.17564 -6.715,-0.75405 -2.5532,0.47993 -3.1129,0.51206 -4.6607,-1.05433 -0.2275,-0.23034 -0.65704,-0.25554 -0.93804,-0.45152 -1.65696,-1.15548 -2.9718,0.86716 -4.57661,0.43798 -2.88022,-0.77011 -3.93136,1.9776 -5.64567,2.0135 -2.26998,0.0475 -4.60693,1.56324 -6.81272,-0.25082 -0.1311,-0.10773 -0.4189,-0.0942 -0.6161,-0.0544 -3.2302,0.65668 -4.0133,0.45817 -6.59,-1.52163 -0.5359,-0.41153 -1.5813,-0.41467 -1.7788,-0.023 -1.355,2.68593 -25.8832,1.85029 -34.2724,3.89721 -3.5639,0.86937 -1.6622,-1.67319 -4.2352,-0.62675 -0.5017,0.20409 -0.4318,0.79879 -0.2784,1.09687 0.9558,1.85405 0.328,3.82093 0.5504,5.71597 0.3248,2.76155 -2.787,0.37718 -2.923,2.39603 -0.3951,5.86691 -0.2449,37.65754 -0.2372,39.78131 0.011,2.95563 -2.9,8.66148 -3.6361,6.12113 -0.1703,-0.5886 0.057,-1.28561 -0.025,-1.82537 -0.2678,-1.75668 1.511,-2.99662 0.4726,-5.24044 -1.2116,-2.6182 -0.858,-5.94661 -1.0763,-8.97409 -0.054,-0.75278 -0.3084,-1.64453 0.5769,-2.29362 0.9462,-0.69418 -0.4936,-0.8911 -0.5511,-4.13411 -0.01,-0.42003 -0.5208,-27.44229 -0.8649,-41.21886 -1.0845,-43.42758 5.0556,-36.51929 -6.8891,-39.40184 -0.756,-0.18242 -1.4986,-0.39135 -1.3481,-1.48034 0.1801,-1.30011 -1.1311,-1.30106 -1.4379,-0.83378 -1.0277,1.56576 -2.0854,0.10562 -2.1901,-0.19441 -0.3442,-0.985 -1.1411,-0.57252 -1.6665,-0.86243 -3.7975,-2.09385 -6.61851,0.89835 -15.32821,0.84099 -1.861,-0.0127 -3.3858,-0.0511 -2.0253,2.75464 -3.004,-0.9116 -5.2807,1.0033 -7.9331,0.7386 -0.842,-0.0842 -1.8858,0.72348 -1.1704,2.05478 0.6625,1.23267 0.7476,87.2822 0.5926,89.96782 -0.107,1.85028 0.4727,3.39394 -2.1227,4.29043 -3.5572,1.22888 -4.8894,-1.88871 -3.8363,-2.91186 2.0469,-1.98859 -0.5149,-3.48658 -0.6162,-5.29653 0,0 0.1698,-20.41669 0.1671,-20.486 -0.2991,-6.8456 -2.9376,-6.78796 -3.7316,-12.68384 -0.3416,-2.53689 -2.2658,-4.50407 -3.6576,-6.64993 -0.6535,-1.0074 -1.7462,-0.10947 -2.2763,-1.00107 -1.3947,-2.34563 -2.5226,-4.84944 -2.8819,-7.49029 -0.3039,-2.23408 -1.4933,-4.35189 -0.9932,-6.70442 0.2163,-1.01653 -1.4942,-1.39967 -1.6395,0.0189 -0.3097,3.02561 0.5913,5.27889 -0.2436,6.64395 -7.8819,12.88705 -9.8663,15.58526 -11.124,20.33104 -0.1844,0.6948 0.5787,1.47877 -0.1317,1.81876 -1.9245,0.92074 -1.8343,2.4556 -1.4344,24.93273 0.079,4.43127 0.023,4.26143 -4.5269,4.00306 -3.7909,-0.21555 -0.7051,-3.65645 -1.9341,-10.13617 -0.4599,-2.42311 0.6886,-4.53336 0.2461,-7.0652 -0.9938,-5.686 0.3348,-11.55985 -0.1599,-17.37601 -2.0195,-23.73227 1.0302,-28.06647 -2.9976,-27.3994 -2.3404,0.38758 -1.8116,-0.45435 -1.7691,-10.92611 0.052,-12.79689 0.4335,-11.66507 -0.2929,-12.91695 -1.9074,1.69807 -1.424,-2.5268 -1.424,23.84465 -4.7199,0 -5.6181,0.4213 -4.9056,2.42849 0.2118,0.59646 -0.3235,1.42172 -1.415,1.3754 -7.985,-0.33777 -8.2914,-0.0352 -8.2756,2.96541 0.2961,55.70531 0.8955,51.84629 -1.1366,51.70513 -2.3936,-0.16602 -4.8247,0.18746 -7.2402,0.31446 -5.6303,0.29588 -0.9307,4.88752 -4.5041,4.60802 -10.7995,-0.84477 -12.5828,-0.81453 -12.7169,-1.53075 -0.2536,-1.35432 -1.2993,-1.14256 -2.13,-1.07071 -1.6805,0.14553 -3.6366,-0.53503 -4.8234,1.39906 -0.1576,0.25648 -0.7756,0.35354 -1.1733,0.33872 -1.5761,-0.0581 -3.1084,0.27635 -4.6584,0.3879 -2.0924,0.15068 -1.5758,-0.44998 -1.4417,14.96917 0,0.44274 0.074,0.88955 -0.3613,1.22133 -0.8984,-1.46268 -11.6486,-12.68406 -12.8341,-13.90226 -0.6768,-0.69573 -1.5143,-2.60052 -3.0801,-0.77355 -0.055,0.0643 -0.5546,-0.0968 -0.7031,-0.27035 -0.9513,-1.11358 -1.7537,-1.25918 -5.7889,5.63147 -1.6699,2.85166 -3.983,5.29685 -5.3947,8.3089 -0.2436,0.51962 -0.2491,1.42551 -1.0841,1.37448 -1.374,-0.084 0.4257,-1.45862 -1.3125,-1.81908 -3.8625,-0.80098 -4.3146,10e-4 -4.7322,-1.18258 -0.6097,-1.73053 -2.2402,-2.11591 -3.7738,-2.58352 -2.393,-0.72945 -4.2382,1.41226 -6.5407,1.2179 -0.9713,-0.082 -2.1333,0.51864 -2.0144,-1.44159 0.077,-1.27304 0.3155,-2.66169 0.1141,-3.85969 -1.3628,-8.10882 3.1019,-16.90109 -1.1143,-16.44452 -0.7061,0.0765 -5.9426,2.26086 -9.1419,-0.18367 -1.5642,-1.19517 -2.0946,-0.79436 -2.8093,0.53064 -0.7879,1.46048 -2.1272,1.75669 -3.3785,0.96925 -1.7614,-1.10855 -2.2489,-0.0886 -1.4253,1.24716 2.0708,3.35773 -1.4514,3.28682 -4.0513,3.26664 -4.7467,-0.0368 1.5217,5.84105 -4.3606,4.93639 -18.1132,-2.78485 -20.12377,-0.5007 -27.68165,-0.38789 -3.17492,0.0474 1.50641,3.37252 -2.28398,6.50368 -2.54425,2.10173 -1.43511,5.83757 -3.69719,8.11072 -0.18397,0.18493 0.1197,0.83374 0.2074,1.32971 -0.76687,-0.12751 -1.61631,0.5344 -1.86051,-0.80884 -0.61837,-3.39933 -0.85944,-6.78226 -0.13787,-10.18503 0.083,-0.39293 0.36577,-0.68724 -0.1346,-1.06473 -4.83993,-3.65075 -2.51985,-3.53669 -9.18649,-3.34385 -1.88628,0.0545 -2.86972,-0.1621 -2.67515,-2.39291 0.47017,-5.39166 -4.26046,-1.44281 -8.74849,-3.50516 -1.34724,-0.61917 -2.53015,0.64437 -4.08616,0.56656 -3.31992,-0.166 -6.71754,0.13989 -10.08323,0.24199 -2.24298,0.0682 -3.10595,0.84574 -3.13395,3.06594 -0.1274,10.09363 0.80647,10.43899 -2.05726,10.40905 -1.42145,-0.0142 -1.03896,3.97973 -1.00738,-50.69673 10e-4,-4.19243 -4.40093,1.08992 -3.8241,-4.94239 0.34128,-3.57357 -0.9648,-3.93057 -2.15228,-3.22538 -1.57936,0.93805 -2.91571,0.82052 -14.39547,2.58984 -0.89293,0.1375 -1.60413,0.0995 -2.03208,-1.45358 -0.96448,3.61296 -0.78465,-0.79406 -0.7518,19.08828 0.0145,9.80475 0.75601,11.43759 -2.61666,11.17417 3.36298,0.44557 4.07967,-0.37213 4.24917,0.64565 0.15409,0.92449 -0.63386,0.73607 -1.15556,0.74458 -1.36893,0.0221 -1.19172,1.81591 -0.0462,1.67477 1.87224,-0.23067 1.0489,1.34327 1.26705,3.23765 0.1827,1.58622 -0.36475,2.24825 -2.05302,1.6089 0.43568,-1.33193 0.73086,-3.34133 -0.77694,-3.13368 -1.00733,0.13861 -0.23458,0.66832 -0.26036,1.04143 -0.0783,1.1296 0.52526,2.37775 -0.61775,3.43963 0.6248,-2.89264 -2.45488,-3.37758 -3.40005,-5.2291 -0.13943,-0.2732 -0.9935,-0.27413 -1.04119,0.49564 -0.0345,0.55775 -0.0164,1.11893 -0.0164,1.67855 3.5e-4,0.65196 -1.02183,0.78996 -0.85877,-0.0606 0.39056,-2.04122 -0.53105,-2.15717 -2.41269,-2.14458 -1.82422,0.0128 -1.77427,0.32835 -1.1836,1.65838 0.43213,0.97272 -0.79242,2.23249 -1.84421,2.17926 -5.05704,-0.25618 -10.06026,-0.91602 -15.02966,-1.83328 -1.77719,-0.32801 -3.95653,-0.20452 -3.61721,-3.06876 0.11793,-0.9951 -1.06858,-0.88103 -1.35987,-0.54892 -1.01604,1.1577 -2.20162,0.3816 -3.285,0.56058 -2.06722,0.34125 -3.81124,-1.21944 -5.84303,-0.71057 -1.56997,0.39325 -2.84832,0.0493 -3.61464,-1.69584 -0.53683,0.72314 -0.39505,1.50206 -1.31991,1.86694 -1.45591,0.57443 -3.65202,-0.32895 -4.35325,1.90259 -0.0215,0.0659 -0.40506,0.0397 -0.61806,0.0281 -4.79636,-0.26624 -9.51149,0.73671 -14.28461,0.90121 -1.3125,0.0452 -3.18412,-0.42666 -3.66555,1.79954 -0.11469,0.53156 -1.22681,0.34692 -1.64992,-0.17152 -6.86547,-8.40944 -6.39208,-8.99993 -8.36554,-8.84583 -5.13438,0.40081 -0.6735,-2.11089 -6.03827,-2.06898 -1.92319,0.0142 -1.32122,-0.16332 -1.32251,-13.43565 0,-2.99978 -8.12675,-2.36454 -11.12205,-2.02643 -2.29153,0.25868 -4.71223,-0.6176 -6.89384,0.70015 -0.64645,0.39041 -5.64837,-2.74705 -9.93135,1.35841 -0.32514,0.31164 -0.43569,0.3255 -0.80787,0.0466 -1.69602,-1.27077 -3.30047,-0.0405 -4.95908,0.2105 -1.68117,0.2546 -3.94658,-0.37906 -3.40647,2.60749 0.0131,0.0708 -0.17107,0.24863 -0.27005,0.25396 -2.88734,0.15087 -0.12851,2.74771 -0.85783,36.60915 -0.0628,2.92478 0.31227,5.27258 -0.93259,4.90486 -1.12979,-0.3337 -3.77801,1.02407 -3.78188,-0.3986 -0.006,-3.21308 -0.67415,-6.61271 0.19602,-9.58128 0.72668,-2.47889 -0.99253,-1.91739 -1.75333,-2.20601 -1.78527,-0.67778 -4.68773,0.64468 -4.44542,-1.06504 0.16976,-1.19896 0.33739,-1.59724 -10.31643,-2.01224 -5.26457,-0.20513 -4.40546,-0.11308 -3.91176,-20.87642 0.0719,-3.02437 -2.32277,-1.86446 -5.66835,-2.60654 -3.86215,-0.85678 -7.86316,-0.11395 -11.81939,-1.53581 -8.87791,-3.19042 -9.25785,-0.0912 -10.44631,-2.61598 -0.71601,-1.52072 -2.25057,-1.52985 -2.85026,0.0305 -0.92712,2.41276 -2.15393,-0.28453 -4.76315,1.13218 -1.85873,1.00896 -10.49076,1.78662 -13.30205,2.05636 -1.55677,0.14945 -1.6006,-0.7512 -1.73079,14.72126 -0.23009,27.34922 0.38024,25.56449 -0.52752,25.9136 -2.08945,0.80383 -2.30216,-4.22268 -5.62612,-3.33377 -0.15922,0.0426 -1.40822,-2.24288 -1.2152,-3.95672 0.44858,-3.98257 -1.97636,-0.30568 -3.10003,-1.02031 -2.26798,-1.4422 -4.42347,-1.07196 -6.60381,0.45185 -0.53138,-4.36162 1.00541,-6.19392 -1.7337,-7.79308 -0.1801,-0.10537 -0.11532,-3.52566 -0.10935,-3.73077 0.0705,-2.29271 -1.20456,-0.89269 -6.63443,-1.91457 -1.72918,-0.32549 -2.84995,1.07481 -4.39643,1.30389 -2.10363,0.31132 -4.12733,0.6759 -6.32765,0.59334 -2.4146,-0.0907 -4.85821,0.84194 -7.3424,1.08553 -2.04917,0.20114 -3.96073,0.87062 -5.42279,3.26004 0.37705,-9.01444 -0.33127,-17.50356 -0.47563,-26.13961 -0.32965,0.16136 -0.5881,0.20177 -0.66061,0.33685 -0.76405,1.42836 -2.26831,0.22782 -3.23664,0.89082 -0.0652,-0.8218 -0.40604,-1.75166 -0.12502,-2.43766 0.34673,-0.84605 0.0899,-1.57958 -0.40185,-1.81404 -3.19862,-1.52513 -2.2422,-4.12722 -2.34112,-8.37259 -0.0108,-0.42098 -0.31388,-1.07482 -0.66707,-0.60248 -1.69533,2.2659 -0.51365,-2.97836 -1.42916,-5.93089 -0.98092,2.3157 -0.0471,5.2159 -0.69446,6.42718 -2.38816,4.46815 2.2577,5.68381 -1.18069,7.70835 -2.75523,1.62246 -4.98162,-0.6302 -7.45294,-0.28484 -0.43279,0.0606 -0.55815,-0.35986 -0.5691,-0.72916 -0.252,-8.48319 -0.99478,0.85581 -1.89932,-11.14644 -0.96998,0.69984 -0.66673,1.45922 -0.67544,2.10143 -0.12675,9.34372 0.5459,9.91154 -1.32282,9.99442 -4.18601,0.18599 1.37825,6.58123 -5.55845,4.90488 0.0542,3.2213 -0.4618,6.37706 -0.74473,9.54382 -1.26417,14.16005 1.63606,16.80499 -1.6644,16.74669 -1.35347,-0.024 -1.02929,2.13512 -1.02929,20.06345 -2.36564,0.0684 -1.66762,-0.37999 -1.71307,-14.06297 -0.0108,-2.89863 -1.4395,-0.19652 -1.473,-4.43788 -0.0108,-1.23899 0.50528,-2.88035 -1.82264,-3.45698 -0.65289,-0.16155 -10.4267,-1.02692 -11.31515,-1.28908 -1.43914,-0.42477 -2.79774,0.59712 -4.26912,0.77611 -5.86524,0.71368 -14.38029,-0.40745 -11.43237,3.04639 0.19839,0.23255 0.72086,0.38221 0.25457,0.74047 -2.46874,1.89723 -0.12545,5.65669 -0.6171,7.24326 -0.21559,0.69512 -0.91872,1.76707 -0.69605,1.98796 1.82553,1.81212 0.0215,1.75449 0.35254,14.58856 0.028,1.08362 0.48787,1.31145 -9.02067,0.48652 -4.54049,-0.39389 -1.07503,-4.9635 -2.71269,-6.08273 -2.61795,-1.78914 -1.72178,-4.0626 -0.75727,-5.85743 1.24708,-2.3207 -1.39181,-3.77613 -0.7486,-5.78178 0.0151,-0.0507 -0.18205,-0.2256 -0.30032,-0.2505 -2.87763,-0.60621 -2.80866,-2.59671 -2.74583,-4.91964 0.28132,-10.41252 -0.19775,-20.83606 0.47371,-31.24643 0.16698,-2.59046 -0.15815,-3.00925 -2.85867,-2.83593 -3.73161,0.23949 -2.89345,1.83988 -2.24992,-38.96392 0.0252,-1.58432 -0.38091,-2.4017 -2.12201,-2.25044 -0.47821,0.0417 -1.26061,0.20389 -1.39564,-0.24451 -1.13658,-3.77461 -6.30897,0.0835 -5.95096,-3.75381 0.45792,-4.90833 0.45211,-28.74448 0.45533,-29.1642 0.0265,-3.36497 -2.76392,-0.0822 -2.587,-2.9837 0.21881,-3.58995 -0.54491,-7.08478 -1.02056,-10.67411 -0.4679,0.49219 0.14438,1.59538 -1.10304,1.50557 -1.08629,-0.0781 -1.29642,-0.92862 -1.26095,-1.58088 0.12114,-2.24765 -0.60099,-4.40828 -0.48049,-6.66785 0.0525,-0.9831 0.57168,-11.99368 -1.21293,-13.7447 -0.25232,2.07337 -0.21109,4.11522 -0.26101,6.15456 -0.10135,4.1606 -1.79847,8.14189 -1.51555,12.34151 0.11835,1.75545 -0.31451,3.43937 -0.45566,5.15889 -0.0269,0.3255 0.048,0.74805 -0.46532,0.78713 -1.84357,0.13989 0.18139,-4.84503 -2.00889,-9.75555 -1.69469,-3.79948 0.16848,-15.23292 -1.19716,-18.0953 -0.52944,4.22929 -1.12623,8.61708 -1.05858,12.88197 0.0648,4.08622 -1.10852,8.12325 -0.84943,12.24576 0.0368,0.57159 0.0331,1.11483 -0.84848,1.10853 -1.62801,-0.0124 -0.2968,-2.12128 -1.17461,-3.36373 -1.27221,0.57885 -1.03504,1.40852 -1.5384,13.08908 -0.0803,1.85971 -2.36047,-0.70081 -2.37433,3.84516 -0.0895,29.31421 0.70895,28.34588 -2.03628,28.54945 -3.27275,0.24262 -2.33049,-2.27471 -2.68013,39.45606 -0.0312,3.71635 0.006,3.7699 -3.89371,4.02231 -1.09469,0.0709 -1.52037,0.36677 -1.53261,1.44095 -0.59811,51.8859 0.25554,50.17393 -2.35757,49.82039 -0.24406,101.15065 -39.00435,36.00128 -39.97125,80.20685 871.88157,-0.14145 822.60937,0.9825 822.60687,-1.74723 -0.045,-44.20838 -0.038,-88.41675 -0.038,-132.62519 z" id="chicago_path" style="fill:#4b4b4b;fill-opacity:1;stroke-width:0.318652" sodipodi:nodetypes="ccsscsssssscscssccscccsccccsccccccsscssccssssccsccsccscssccscccssscccscccscssssccsccsssscscsssccccsssscscccsscccscsscsccsscccscssccscsccsccsccssscccccscsccsscccccsscssccccsccccccccsccccccccsccccccccccscccssssccccscccscccccccccccscscccccccscccccc"/>
  </g>
  <style type="text/css" id="style912">
	.st0{fill:#808080;}
	.st1{fill:#222222;}
	.st2{fill:#B14225;}
	.st3{fill:none;stroke:#B14225;stroke-width:3;stroke-linecap:round;stroke-linejoin:round;stroke-miterlimit:10;}
	.st4{fill:#E37325;}
	.st5{fill:none;stroke:#E37325;stroke-width:3;stroke-linecap:round;stroke-linejoin:round;stroke-miterlimit:10;}
	.st6{fill:#FAA436;}
	.st7{fill:none;stroke:#FAA436;stroke-width:3;stroke-linecap:round;stroke-linejoin:round;stroke-miterlimit:10;}
</style>
</svg>